<svg xmlns="http://www.w3.org/2000/svg" xmlns:xlink="http://www.w3.org/1999/xlink" xmlns:lucid="lucid" width="1720" height="1220"><g transform="translate(0 -120)" lucid:page-tab-id="mXwzAnnOLpm1"><path d="M0 0h1760v1360H0z" fill="#fff"/><path d="M20 140h1680v1180H20z" fill="#fff"/><path d="M22.5 140c0 1.38-1.12 2.5-2.5 2.5s-2.5-1.12-2.5-2.5 1.12-2.5 2.5-2.5 2.5 1.12 2.5 2.5zm20 0c0 1.38-1.12 2.5-2.5 2.5s-2.5-1.12-2.5-2.5 1.12-2.5 2.5-2.5 2.5 1.12 2.5 2.5zm20 0c0 1.38-1.12 2.5-2.5 2.5s-2.5-1.12-2.5-2.5 1.12-2.5 2.5-2.5 2.5 1.12 2.5 2.5zm20 0c0 1.38-1.12 2.5-2.5 2.5s-2.5-1.12-2.5-2.5 1.12-2.5 2.5-2.5 2.5 1.12 2.5 2.5zm20 0c0 1.38-1.12 2.5-2.5 2.5s-2.5-1.12-2.5-2.5 1.12-2.5 2.5-2.5 2.5 1.12 2.5 2.5zm20 0c0 1.38-1.12 2.5-2.5 2.5s-2.5-1.12-2.5-2.5 1.12-2.5 2.5-2.5 2.5 1.12 2.5 2.5zm20 0c0 1.38-1.12 2.5-2.5 2.5s-2.5-1.12-2.5-2.5 1.12-2.5 2.5-2.5 2.5 1.12 2.5 2.5zm20 0c0 1.38-1.12 2.5-2.5 2.5s-2.5-1.12-2.5-2.5 1.12-2.5 2.5-2.5 2.5 1.12 2.5 2.5zm20 0c0 1.38-1.12 2.5-2.5 2.5s-2.5-1.12-2.5-2.5 1.12-2.5 2.5-2.5 2.5 1.12 2.5 2.5zm20 0c0 1.38-1.12 2.5-2.5 2.5s-2.5-1.12-2.5-2.5 1.12-2.5 2.5-2.5 2.5 1.12 2.5 2.5zm20 0c0 1.38-1.12 2.5-2.5 2.5s-2.5-1.12-2.5-2.5 1.12-2.5 2.5-2.5 2.5 1.12 2.5 2.5zm20 0c0 1.38-1.12 2.5-2.5 2.5s-2.5-1.12-2.5-2.5 1.12-2.5 2.5-2.5 2.5 1.12 2.5 2.5zm20 0c0 1.38-1.12 2.5-2.5 2.5s-2.5-1.12-2.5-2.5 1.12-2.5 2.5-2.5 2.5 1.12 2.5 2.5zm20 0c0 1.38-1.12 2.5-2.5 2.5s-2.5-1.12-2.5-2.5 1.12-2.5 2.5-2.5 2.5 1.12 2.5 2.5zm20 0c0 1.38-1.12 2.5-2.5 2.5s-2.5-1.12-2.5-2.5 1.12-2.5 2.5-2.5 2.5 1.12 2.5 2.5zm20 0c0 1.38-1.12 2.5-2.5 2.5s-2.5-1.12-2.5-2.5 1.12-2.5 2.5-2.5 2.5 1.12 2.5 2.5zm20 0c0 1.38-1.12 2.5-2.5 2.5s-2.5-1.12-2.5-2.5 1.12-2.5 2.5-2.5 2.5 1.12 2.5 2.5zm20 0c0 1.38-1.12 2.5-2.5 2.5s-2.5-1.12-2.5-2.5 1.12-2.5 2.5-2.5 2.5 1.12 2.5 2.5zm20 0c0 1.38-1.12 2.5-2.5 2.5s-2.5-1.12-2.5-2.5 1.12-2.5 2.5-2.5 2.5 1.12 2.5 2.5zm20 0c0 1.38-1.12 2.5-2.5 2.5s-2.5-1.12-2.5-2.5 1.12-2.5 2.5-2.5 2.5 1.12 2.5 2.5zm20 0c0 1.38-1.12 2.5-2.5 2.5s-2.5-1.12-2.5-2.5 1.12-2.5 2.5-2.5 2.5 1.12 2.5 2.5zm20 0c0 1.38-1.12 2.5-2.5 2.5s-2.5-1.12-2.5-2.5 1.12-2.5 2.5-2.5 2.5 1.12 2.5 2.5zm20 0c0 1.38-1.12 2.5-2.5 2.5s-2.5-1.12-2.5-2.5 1.12-2.5 2.5-2.5 2.5 1.12 2.5 2.5zm20 0c0 1.38-1.12 2.5-2.5 2.5s-2.5-1.12-2.5-2.5 1.12-2.5 2.5-2.5 2.5 1.12 2.5 2.5zm20 0c0 1.38-1.12 2.5-2.5 2.5s-2.5-1.12-2.5-2.5 1.12-2.5 2.5-2.5 2.5 1.12 2.5 2.5zm20 0c0 1.38-1.12 2.5-2.5 2.5s-2.5-1.12-2.5-2.5 1.12-2.5 2.5-2.5 2.5 1.12 2.5 2.5zm20 0c0 1.38-1.12 2.5-2.5 2.5s-2.5-1.12-2.5-2.5 1.12-2.5 2.5-2.5 2.5 1.12 2.5 2.5zm20 0c0 1.38-1.12 2.5-2.5 2.5s-2.5-1.12-2.5-2.5 1.12-2.5 2.5-2.5 2.5 1.12 2.5 2.5zm20 0c0 1.38-1.12 2.5-2.5 2.5s-2.5-1.12-2.5-2.5 1.12-2.5 2.5-2.5 2.5 1.12 2.5 2.5zm20 0c0 1.38-1.12 2.5-2.5 2.5s-2.5-1.12-2.5-2.5 1.12-2.5 2.5-2.5 2.5 1.12 2.5 2.5zm20 0c0 1.38-1.12 2.5-2.5 2.5s-2.5-1.12-2.5-2.5 1.12-2.5 2.5-2.5 2.5 1.12 2.5 2.5zm20 0c0 1.38-1.12 2.5-2.5 2.5s-2.5-1.12-2.5-2.5 1.12-2.5 2.5-2.5 2.5 1.12 2.5 2.5zm20 0c0 1.38-1.12 2.5-2.5 2.5s-2.5-1.12-2.5-2.5 1.12-2.5 2.5-2.5 2.5 1.12 2.5 2.5zm20 0c0 1.38-1.12 2.5-2.5 2.5s-2.5-1.12-2.5-2.5 1.12-2.5 2.5-2.5 2.5 1.12 2.5 2.5zm20 0c0 1.38-1.12 2.5-2.5 2.5s-2.5-1.12-2.5-2.5 1.12-2.5 2.5-2.5 2.5 1.12 2.5 2.5zm20 0c0 1.38-1.12 2.5-2.5 2.5s-2.5-1.12-2.5-2.5 1.12-2.5 2.5-2.5 2.5 1.12 2.5 2.5zm20 0c0 1.38-1.12 2.5-2.5 2.5s-2.5-1.12-2.5-2.5 1.12-2.5 2.5-2.5 2.5 1.12 2.5 2.5zm20 0c0 1.38-1.12 2.5-2.5 2.5s-2.5-1.12-2.5-2.5 1.12-2.5 2.5-2.5 2.5 1.12 2.5 2.5zm20 0c0 1.38-1.12 2.5-2.5 2.5s-2.5-1.12-2.5-2.5 1.12-2.5 2.5-2.5 2.5 1.12 2.5 2.5zm20 0c0 1.38-1.12 2.5-2.5 2.5s-2.5-1.12-2.5-2.5 1.12-2.5 2.5-2.5 2.5 1.12 2.5 2.5zm20 0c0 1.38-1.12 2.5-2.5 2.5s-2.5-1.12-2.5-2.5 1.12-2.5 2.5-2.5 2.5 1.12 2.5 2.5zm20 0c0 1.38-1.12 2.5-2.5 2.5s-2.5-1.12-2.5-2.5 1.12-2.5 2.5-2.5 2.5 1.12 2.5 2.5zm20 0c0 1.38-1.12 2.5-2.5 2.5s-2.5-1.12-2.5-2.5 1.12-2.5 2.5-2.5 2.5 1.12 2.5 2.5zm20 0c0 1.38-1.12 2.5-2.5 2.5s-2.5-1.12-2.5-2.5 1.12-2.5 2.5-2.5 2.5 1.12 2.5 2.5zm20 0c0 1.38-1.12 2.5-2.5 2.5s-2.5-1.12-2.5-2.5 1.12-2.5 2.5-2.5 2.5 1.12 2.5 2.5zm20 0c0 1.38-1.12 2.5-2.5 2.5s-2.5-1.12-2.5-2.5 1.12-2.5 2.5-2.5 2.5 1.12 2.5 2.5zm20 0c0 1.38-1.12 2.5-2.5 2.5s-2.5-1.12-2.5-2.5 1.12-2.5 2.5-2.5 2.5 1.12 2.5 2.5zm20 0c0 1.38-1.12 2.5-2.5 2.5s-2.5-1.12-2.5-2.5 1.12-2.5 2.5-2.5 2.5 1.12 2.5 2.5zm20 0c0 1.38-1.12 2.5-2.5 2.5s-2.5-1.12-2.5-2.5 1.12-2.5 2.5-2.5 2.5 1.12 2.5 2.5zm20 0c0 1.38-1.12 2.5-2.5 2.5s-2.5-1.12-2.5-2.5 1.12-2.5 2.5-2.5 2.5 1.12 2.5 2.5zm20 0c0 1.38-1.12 2.5-2.5 2.5s-2.5-1.12-2.5-2.5 1.12-2.5 2.5-2.5 2.5 1.12 2.5 2.5zm20 0c0 1.38-1.12 2.5-2.5 2.5s-2.5-1.12-2.5-2.5 1.12-2.5 2.5-2.5 2.5 1.12 2.5 2.5zm20 0c0 1.38-1.12 2.5-2.5 2.5s-2.5-1.12-2.5-2.5 1.12-2.5 2.5-2.5 2.5 1.12 2.5 2.5zm20 0c0 1.38-1.12 2.5-2.5 2.5s-2.5-1.12-2.5-2.5 1.12-2.5 2.5-2.5 2.5 1.12 2.5 2.5zm20 0c0 1.38-1.12 2.5-2.5 2.5s-2.5-1.12-2.5-2.5 1.12-2.5 2.5-2.5 2.5 1.12 2.5 2.5zm20 0c0 1.38-1.12 2.5-2.5 2.5s-2.5-1.12-2.5-2.5 1.12-2.5 2.5-2.5 2.5 1.12 2.5 2.5zm20 0c0 1.38-1.12 2.5-2.5 2.5s-2.5-1.12-2.5-2.5 1.12-2.5 2.5-2.5 2.5 1.12 2.5 2.5zm20 0c0 1.38-1.12 2.5-2.5 2.5s-2.5-1.12-2.5-2.5 1.12-2.5 2.5-2.5 2.5 1.12 2.5 2.5zm20 0c0 1.38-1.12 2.5-2.5 2.5s-2.5-1.12-2.5-2.5 1.12-2.5 2.5-2.5 2.5 1.12 2.5 2.5zm20 0c0 1.38-1.12 2.5-2.5 2.5s-2.5-1.12-2.5-2.5 1.12-2.5 2.5-2.5 2.5 1.12 2.5 2.5zm20 0c0 1.38-1.12 2.5-2.5 2.5s-2.5-1.12-2.5-2.5 1.12-2.5 2.5-2.5 2.5 1.12 2.5 2.5zm20 0c0 1.38-1.12 2.5-2.5 2.5s-2.5-1.12-2.5-2.5 1.12-2.5 2.5-2.5 2.5 1.12 2.5 2.5zm20 0c0 1.38-1.12 2.5-2.5 2.5s-2.5-1.12-2.5-2.5 1.12-2.5 2.5-2.5 2.5 1.12 2.5 2.5zm20 0c0 1.38-1.12 2.5-2.5 2.5s-2.5-1.12-2.5-2.5 1.12-2.5 2.5-2.5 2.5 1.12 2.5 2.5zm20 0c0 1.38-1.12 2.5-2.5 2.5s-2.5-1.12-2.5-2.5 1.12-2.5 2.5-2.5 2.5 1.12 2.5 2.5zm20 0c0 1.38-1.12 2.5-2.5 2.5s-2.5-1.12-2.5-2.5 1.12-2.5 2.5-2.5 2.5 1.12 2.5 2.5zm20 0c0 1.38-1.12 2.5-2.5 2.5s-2.5-1.12-2.5-2.5 1.12-2.5 2.5-2.5 2.5 1.12 2.5 2.5zm20 0c0 1.38-1.12 2.5-2.5 2.5s-2.5-1.12-2.5-2.5 1.12-2.5 2.5-2.5 2.5 1.12 2.5 2.5zm20 0c0 1.38-1.12 2.5-2.5 2.5s-2.5-1.12-2.5-2.5 1.12-2.5 2.5-2.5 2.5 1.12 2.5 2.5zm20 0c0 1.38-1.12 2.5-2.5 2.5s-2.5-1.12-2.5-2.5 1.12-2.5 2.5-2.5 2.5 1.12 2.5 2.5zm20 0c0 1.38-1.12 2.5-2.5 2.5s-2.5-1.12-2.5-2.5 1.12-2.5 2.5-2.5 2.5 1.12 2.5 2.5zm20 0c0 1.38-1.12 2.5-2.5 2.5s-2.5-1.12-2.5-2.5 1.12-2.5 2.5-2.5 2.5 1.12 2.5 2.5zm20 0c0 1.38-1.12 2.5-2.5 2.5s-2.5-1.12-2.5-2.5 1.12-2.5 2.5-2.5 2.5 1.12 2.5 2.5zm20 0c0 1.38-1.12 2.5-2.5 2.5s-2.5-1.12-2.5-2.5 1.12-2.5 2.5-2.5 2.5 1.12 2.5 2.5zm20 0c0 1.38-1.12 2.5-2.5 2.5s-2.5-1.12-2.5-2.5 1.12-2.5 2.5-2.5 2.5 1.12 2.5 2.5zm20 0c0 1.38-1.12 2.5-2.5 2.5s-2.5-1.12-2.5-2.5 1.12-2.5 2.5-2.5 2.5 1.12 2.5 2.5zm20 0c0 1.38-1.12 2.5-2.5 2.5s-2.5-1.12-2.5-2.5 1.12-2.5 2.5-2.5 2.5 1.12 2.5 2.5zm20 0c0 1.38-1.12 2.5-2.5 2.5s-2.5-1.12-2.5-2.5 1.12-2.5 2.5-2.5 2.5 1.12 2.5 2.5zm20 0c0 1.38-1.12 2.5-2.5 2.5s-2.5-1.12-2.5-2.5 1.12-2.5 2.5-2.5 2.5 1.12 2.5 2.5zm20 0c0 1.38-1.12 2.5-2.5 2.5s-2.5-1.12-2.5-2.5 1.12-2.5 2.5-2.5 2.5 1.12 2.5 2.5zm20 0c0 1.38-1.12 2.5-2.5 2.5s-2.5-1.12-2.5-2.5 1.12-2.5 2.5-2.5 2.5 1.12 2.5 2.5zm20 0c0 1.38-1.12 2.5-2.5 2.5s-2.5-1.12-2.5-2.5 1.12-2.5 2.5-2.5 2.5 1.12 2.5 2.5zm20 0c0 1.38-1.12 2.5-2.5 2.5s-2.5-1.12-2.5-2.5 1.12-2.5 2.5-2.5 2.5 1.12 2.5 2.5zm20 0c0 1.38-1.12 2.5-2.5 2.5s-2.5-1.12-2.5-2.5 1.12-2.5 2.5-2.5 2.5 1.12 2.5 2.5zm20 0c0 1.38-1.12 2.5-2.5 2.5s-2.5-1.12-2.5-2.5 1.12-2.5 2.5-2.5 2.5 1.12 2.5 2.5zm0 20c0 1.38-1.12 2.5-2.5 2.5s-2.5-1.12-2.5-2.5 1.12-2.5 2.5-2.5 2.5 1.12 2.5 2.5zm0 20c0 1.38-1.12 2.5-2.5 2.5s-2.5-1.12-2.5-2.5 1.12-2.5 2.5-2.5 2.5 1.12 2.5 2.5zm0 20c0 1.38-1.12 2.5-2.5 2.5s-2.5-1.12-2.5-2.5 1.12-2.5 2.5-2.5 2.5 1.12 2.5 2.5zm0 20c0 1.38-1.12 2.5-2.5 2.5s-2.5-1.12-2.5-2.5 1.12-2.5 2.5-2.5 2.5 1.12 2.5 2.5zm0 20c0 1.38-1.12 2.5-2.5 2.5s-2.5-1.12-2.5-2.5 1.12-2.5 2.5-2.5 2.5 1.12 2.5 2.5zm0 20c0 1.38-1.12 2.5-2.5 2.5s-2.5-1.12-2.5-2.5 1.12-2.5 2.5-2.5 2.5 1.12 2.5 2.5zm0 20c0 1.38-1.12 2.5-2.5 2.5s-2.5-1.12-2.5-2.5 1.12-2.5 2.5-2.5 2.5 1.12 2.5 2.5zm0 20c0 1.38-1.12 2.5-2.5 2.5s-2.5-1.12-2.5-2.5 1.12-2.5 2.5-2.5 2.5 1.12 2.5 2.5zm0 20c0 1.38-1.12 2.5-2.5 2.5s-2.5-1.12-2.5-2.5 1.12-2.5 2.5-2.5 2.5 1.12 2.5 2.5zm0 20c0 1.38-1.12 2.5-2.5 2.5s-2.5-1.12-2.5-2.5 1.12-2.5 2.5-2.5 2.5 1.12 2.5 2.5zm0 20c0 1.38-1.12 2.5-2.5 2.5s-2.5-1.12-2.5-2.5 1.12-2.5 2.5-2.5 2.5 1.12 2.5 2.5zm0 20c0 1.38-1.12 2.5-2.5 2.5s-2.5-1.12-2.5-2.5 1.12-2.5 2.5-2.5 2.5 1.12 2.5 2.5zm0 20c0 1.38-1.12 2.5-2.5 2.5s-2.5-1.12-2.5-2.5 1.12-2.5 2.5-2.5 2.5 1.12 2.5 2.5zm0 20c0 1.38-1.12 2.5-2.5 2.5s-2.5-1.12-2.5-2.5 1.12-2.5 2.5-2.5 2.5 1.12 2.5 2.5zm0 20c0 1.38-1.12 2.5-2.5 2.5s-2.5-1.12-2.5-2.5 1.12-2.5 2.5-2.5 2.5 1.12 2.5 2.5zm0 20c0 1.38-1.12 2.5-2.5 2.5s-2.5-1.12-2.5-2.5 1.12-2.5 2.5-2.5 2.5 1.12 2.5 2.5zm0 20c0 1.38-1.12 2.5-2.5 2.5s-2.5-1.12-2.5-2.5 1.12-2.5 2.5-2.5 2.5 1.12 2.5 2.5zm0 20c0 1.38-1.12 2.5-2.5 2.5s-2.5-1.12-2.5-2.5 1.12-2.5 2.5-2.5 2.5 1.12 2.5 2.5zm0 20c0 1.38-1.12 2.5-2.5 2.5s-2.5-1.12-2.5-2.5 1.12-2.5 2.5-2.5 2.5 1.12 2.5 2.5zm0 20c0 1.38-1.12 2.5-2.5 2.5s-2.5-1.12-2.5-2.5 1.12-2.5 2.5-2.5 2.5 1.12 2.5 2.5zm0 20c0 1.38-1.12 2.5-2.5 2.5s-2.5-1.12-2.5-2.5 1.12-2.5 2.5-2.5 2.5 1.12 2.5 2.5zm0 20c0 1.38-1.12 2.5-2.5 2.5s-2.5-1.12-2.5-2.5 1.12-2.5 2.5-2.5 2.5 1.12 2.5 2.5zm0 20c0 1.38-1.12 2.5-2.5 2.5s-2.5-1.12-2.5-2.5 1.12-2.5 2.5-2.5 2.5 1.12 2.5 2.5zm0 20c0 1.38-1.12 2.5-2.5 2.5s-2.5-1.12-2.5-2.5 1.12-2.5 2.5-2.5 2.5 1.12 2.5 2.5zm0 20c0 1.38-1.12 2.5-2.5 2.5s-2.5-1.12-2.5-2.5 1.12-2.5 2.5-2.5 2.5 1.12 2.5 2.5zm0 20c0 1.38-1.12 2.5-2.5 2.5s-2.5-1.12-2.5-2.5 1.12-2.5 2.5-2.5 2.5 1.12 2.5 2.5zm0 20c0 1.38-1.12 2.5-2.5 2.5s-2.5-1.12-2.5-2.5 1.12-2.5 2.5-2.5 2.5 1.12 2.5 2.5zm0 20c0 1.38-1.12 2.5-2.5 2.5s-2.5-1.12-2.5-2.5 1.12-2.5 2.5-2.5 2.5 1.12 2.5 2.5zm0 20c0 1.38-1.12 2.5-2.5 2.5s-2.5-1.12-2.5-2.5 1.12-2.5 2.5-2.5 2.5 1.12 2.5 2.5zm0 20c0 1.38-1.12 2.5-2.5 2.5s-2.5-1.12-2.5-2.5 1.12-2.5 2.5-2.5 2.5 1.12 2.5 2.5zm0 20c0 1.38-1.12 2.5-2.5 2.5s-2.5-1.12-2.5-2.5 1.12-2.5 2.5-2.5 2.5 1.12 2.5 2.5zm0 20c0 1.38-1.12 2.5-2.5 2.5s-2.5-1.12-2.5-2.5 1.12-2.5 2.5-2.5 2.5 1.12 2.5 2.5zm0 20c0 1.38-1.12 2.5-2.5 2.5s-2.5-1.12-2.5-2.5 1.12-2.5 2.5-2.5 2.5 1.12 2.5 2.5zm0 20c0 1.38-1.12 2.5-2.5 2.5s-2.5-1.12-2.5-2.5 1.12-2.5 2.5-2.5 2.5 1.12 2.5 2.5zm0 20c0 1.38-1.12 2.5-2.5 2.5s-2.5-1.12-2.5-2.5 1.12-2.5 2.5-2.5 2.5 1.12 2.5 2.5zm0 20c0 1.38-1.12 2.5-2.5 2.5s-2.5-1.12-2.5-2.5 1.12-2.5 2.5-2.5 2.5 1.12 2.5 2.5zm0 20c0 1.38-1.12 2.5-2.5 2.5s-2.5-1.12-2.5-2.5 1.12-2.5 2.5-2.5 2.5 1.12 2.5 2.5zm0 20c0 1.38-1.12 2.5-2.5 2.5s-2.5-1.12-2.5-2.5 1.12-2.5 2.5-2.5 2.5 1.12 2.5 2.5zm0 20c0 1.38-1.12 2.5-2.5 2.5s-2.5-1.12-2.5-2.5 1.12-2.5 2.5-2.5 2.5 1.12 2.5 2.5zm0 20c0 1.38-1.12 2.5-2.5 2.5s-2.5-1.12-2.5-2.5 1.12-2.5 2.5-2.5 2.5 1.12 2.5 2.5zm0 20c0 1.38-1.12 2.5-2.5 2.5s-2.5-1.12-2.5-2.5 1.12-2.5 2.5-2.5 2.5 1.12 2.5 2.5zm0 20c0 1.38-1.12 2.5-2.5 2.5s-2.5-1.12-2.5-2.5 1.12-2.5 2.5-2.5 2.5 1.12 2.5 2.5zm0 20c0 1.38-1.12 2.5-2.5 2.5s-2.5-1.12-2.5-2.5 1.12-2.5 2.5-2.5 2.5 1.12 2.5 2.5zm0 20c0 1.38-1.12 2.5-2.5 2.5s-2.5-1.12-2.5-2.5 1.12-2.5 2.5-2.5 2.5 1.12 2.5 2.5zm0 20c0 1.38-1.12 2.5-2.5 2.5s-2.5-1.12-2.5-2.5 1.12-2.5 2.5-2.5 2.5 1.12 2.5 2.5zm0 20c0 1.38-1.12 2.5-2.5 2.5s-2.5-1.12-2.5-2.5 1.12-2.5 2.5-2.5 2.5 1.12 2.5 2.5zm0 20c0 1.38-1.12 2.5-2.5 2.5s-2.5-1.12-2.5-2.5 1.12-2.5 2.5-2.5 2.5 1.12 2.5 2.5zm0 20c0 1.38-1.12 2.5-2.5 2.5s-2.5-1.12-2.5-2.5 1.12-2.5 2.5-2.5 2.5 1.12 2.5 2.5zm0 20c0 1.38-1.12 2.5-2.5 2.5s-2.5-1.12-2.5-2.5 1.12-2.5 2.5-2.5 2.5 1.12 2.5 2.5zm0 20c0 1.38-1.12 2.5-2.5 2.5s-2.5-1.12-2.5-2.5 1.12-2.5 2.5-2.5 2.5 1.12 2.5 2.5zm0 20c0 1.38-1.12 2.5-2.5 2.5s-2.5-1.12-2.5-2.5 1.12-2.5 2.5-2.5 2.5 1.12 2.5 2.5zm0 20c0 1.38-1.12 2.5-2.5 2.5s-2.5-1.12-2.5-2.5 1.12-2.5 2.5-2.5 2.5 1.12 2.5 2.5zm0 20c0 1.38-1.12 2.5-2.5 2.5s-2.5-1.12-2.5-2.5 1.12-2.5 2.5-2.5 2.5 1.12 2.5 2.5zm0 20c0 1.38-1.12 2.5-2.5 2.5s-2.5-1.12-2.5-2.5 1.12-2.5 2.5-2.5 2.5 1.12 2.5 2.5zm0 20c0 1.38-1.12 2.5-2.5 2.5s-2.5-1.12-2.5-2.5 1.12-2.5 2.5-2.5 2.5 1.12 2.5 2.5zm0 20c0 1.38-1.12 2.5-2.5 2.5s-2.5-1.12-2.5-2.5 1.12-2.5 2.5-2.5 2.5 1.12 2.5 2.5zm0 20c0 1.38-1.12 2.5-2.5 2.5s-2.5-1.12-2.5-2.5 1.12-2.5 2.5-2.5 2.5 1.12 2.5 2.5zm0 20c0 1.38-1.12 2.5-2.5 2.5s-2.5-1.12-2.5-2.5 1.12-2.5 2.5-2.5 2.5 1.12 2.5 2.5zm0 20c0 1.38-1.12 2.5-2.5 2.5s-2.5-1.12-2.5-2.5 1.12-2.5 2.5-2.5 2.5 1.12 2.5 2.5zm-20 0c0 1.38-1.12 2.5-2.5 2.5s-2.5-1.12-2.5-2.5 1.12-2.5 2.5-2.5 2.5 1.12 2.5 2.5zm-20 0c0 1.38-1.12 2.5-2.5 2.5s-2.5-1.12-2.5-2.5 1.12-2.5 2.5-2.5 2.5 1.12 2.5 2.5zm-20 0c0 1.38-1.12 2.5-2.5 2.5s-2.5-1.12-2.5-2.5 1.12-2.5 2.5-2.5 2.5 1.12 2.5 2.5zm-20 0c0 1.38-1.12 2.5-2.5 2.5s-2.5-1.12-2.5-2.5 1.12-2.5 2.5-2.5 2.5 1.12 2.5 2.5zm-20 0c0 1.38-1.12 2.5-2.5 2.5s-2.5-1.12-2.5-2.5 1.12-2.5 2.5-2.5 2.5 1.12 2.5 2.5zm-20 0c0 1.38-1.12 2.5-2.5 2.5s-2.5-1.12-2.5-2.5 1.12-2.5 2.5-2.5 2.5 1.12 2.5 2.5zm-20 0c0 1.38-1.12 2.5-2.5 2.5s-2.5-1.12-2.5-2.5 1.12-2.5 2.5-2.5 2.5 1.12 2.5 2.5zm-20 0c0 1.38-1.12 2.5-2.5 2.5s-2.5-1.12-2.5-2.5 1.12-2.5 2.5-2.5 2.5 1.12 2.5 2.5zm-20 0c0 1.38-1.12 2.5-2.5 2.5s-2.5-1.12-2.5-2.5 1.12-2.5 2.5-2.5 2.5 1.12 2.5 2.5zm-20 0c0 1.38-1.12 2.5-2.5 2.5s-2.5-1.12-2.5-2.5 1.12-2.5 2.5-2.5 2.5 1.12 2.5 2.5zm-20 0c0 1.38-1.12 2.5-2.5 2.5s-2.5-1.12-2.5-2.5 1.12-2.5 2.5-2.5 2.5 1.12 2.5 2.5zm-20 0c0 1.38-1.12 2.5-2.5 2.5s-2.5-1.12-2.5-2.5 1.12-2.5 2.5-2.5 2.5 1.12 2.5 2.5zm-20 0c0 1.38-1.12 2.5-2.5 2.5s-2.5-1.12-2.5-2.5 1.12-2.5 2.5-2.5 2.5 1.12 2.5 2.5zm-20 0c0 1.38-1.12 2.5-2.5 2.5s-2.5-1.12-2.5-2.5 1.12-2.5 2.5-2.5 2.5 1.12 2.5 2.5zm-20 0c0 1.38-1.12 2.5-2.5 2.5s-2.5-1.12-2.5-2.5 1.12-2.5 2.5-2.5 2.5 1.12 2.5 2.5zm-20 0c0 1.38-1.12 2.5-2.5 2.5s-2.5-1.12-2.5-2.5 1.12-2.5 2.5-2.5 2.5 1.12 2.5 2.5zm-20 0c0 1.38-1.12 2.5-2.5 2.5s-2.5-1.12-2.5-2.5 1.12-2.5 2.5-2.5 2.5 1.12 2.5 2.5zm-20 0c0 1.38-1.12 2.5-2.5 2.5s-2.5-1.12-2.5-2.5 1.12-2.5 2.5-2.5 2.5 1.12 2.5 2.5zm-20 0c0 1.38-1.12 2.5-2.5 2.5s-2.5-1.12-2.5-2.5 1.12-2.5 2.5-2.5 2.5 1.12 2.5 2.5zm-20 0c0 1.38-1.12 2.5-2.5 2.5s-2.5-1.12-2.5-2.5 1.12-2.5 2.5-2.5 2.5 1.12 2.5 2.5zm-20 0c0 1.38-1.12 2.5-2.5 2.5s-2.5-1.12-2.5-2.5 1.12-2.5 2.5-2.5 2.5 1.12 2.5 2.5zm-20 0c0 1.38-1.12 2.5-2.5 2.5s-2.5-1.12-2.5-2.5 1.12-2.5 2.5-2.5 2.5 1.12 2.5 2.5zm-20 0c0 1.38-1.12 2.5-2.5 2.5s-2.5-1.12-2.5-2.5 1.12-2.5 2.5-2.5 2.5 1.12 2.5 2.5zm-20 0c0 1.38-1.12 2.5-2.5 2.5s-2.5-1.12-2.5-2.5 1.12-2.5 2.5-2.5 2.5 1.12 2.5 2.5zm-20 0c0 1.38-1.12 2.5-2.5 2.5s-2.5-1.12-2.5-2.5 1.12-2.5 2.5-2.5 2.5 1.12 2.5 2.5zm-20 0c0 1.38-1.12 2.5-2.5 2.5s-2.5-1.12-2.5-2.5 1.12-2.5 2.5-2.5 2.5 1.12 2.5 2.5zm-20 0c0 1.38-1.12 2.5-2.5 2.5s-2.5-1.12-2.5-2.5 1.12-2.5 2.5-2.5 2.5 1.12 2.5 2.5zm-20 0c0 1.38-1.12 2.5-2.5 2.5s-2.5-1.12-2.5-2.5 1.12-2.5 2.5-2.5 2.5 1.12 2.5 2.5zm-20 0c0 1.38-1.12 2.5-2.5 2.5s-2.5-1.12-2.5-2.5 1.12-2.5 2.5-2.5 2.5 1.12 2.5 2.5zm-20 0c0 1.38-1.12 2.5-2.5 2.5s-2.5-1.12-2.5-2.5 1.12-2.5 2.5-2.5 2.5 1.12 2.5 2.5zm-20 0c0 1.38-1.12 2.5-2.5 2.5s-2.5-1.12-2.5-2.5 1.12-2.5 2.5-2.5 2.5 1.12 2.5 2.5zm-20 0c0 1.38-1.12 2.5-2.5 2.5s-2.5-1.12-2.5-2.5 1.12-2.5 2.5-2.5 2.5 1.12 2.5 2.5zm-20 0c0 1.38-1.12 2.5-2.5 2.5s-2.5-1.12-2.5-2.5 1.12-2.5 2.5-2.5 2.5 1.12 2.5 2.5zm-20 0c0 1.38-1.12 2.5-2.5 2.5s-2.5-1.12-2.5-2.5 1.12-2.5 2.5-2.5 2.5 1.12 2.5 2.5zm-20 0c0 1.38-1.12 2.5-2.5 2.5s-2.5-1.12-2.5-2.5 1.12-2.5 2.5-2.5 2.5 1.12 2.5 2.5zm-20 0c0 1.38-1.12 2.5-2.5 2.5s-2.5-1.12-2.5-2.5 1.12-2.5 2.5-2.5 2.5 1.12 2.5 2.5zm-20 0c0 1.38-1.12 2.5-2.5 2.5s-2.5-1.12-2.5-2.5 1.12-2.5 2.5-2.5 2.5 1.12 2.5 2.5zm-20 0c0 1.38-1.12 2.5-2.5 2.5s-2.5-1.12-2.5-2.5 1.12-2.5 2.5-2.5 2.5 1.12 2.5 2.5zm-20 0c0 1.38-1.12 2.5-2.5 2.5s-2.5-1.12-2.5-2.5 1.12-2.5 2.5-2.5 2.5 1.12 2.5 2.5zm-20 0c0 1.38-1.12 2.5-2.5 2.5s-2.5-1.12-2.5-2.5 1.12-2.5 2.5-2.5 2.5 1.12 2.5 2.5zm-20 0c0 1.38-1.12 2.5-2.5 2.5s-2.5-1.12-2.5-2.5 1.12-2.5 2.5-2.5 2.5 1.12 2.5 2.5zm-20 0c0 1.38-1.12 2.5-2.5 2.5s-2.5-1.12-2.5-2.5 1.12-2.5 2.5-2.5 2.5 1.12 2.5 2.5zm-20 0c0 1.38-1.12 2.5-2.5 2.5s-2.5-1.12-2.5-2.5 1.12-2.5 2.5-2.5 2.5 1.12 2.5 2.5zm-20 0c0 1.38-1.12 2.5-2.5 2.5s-2.5-1.12-2.5-2.5 1.12-2.5 2.5-2.5 2.5 1.12 2.5 2.5zm-20 0c0 1.38-1.12 2.5-2.5 2.5s-2.5-1.12-2.5-2.5 1.12-2.5 2.5-2.5 2.5 1.12 2.5 2.5zm-20 0c0 1.38-1.12 2.5-2.5 2.5s-2.5-1.12-2.5-2.5 1.12-2.5 2.5-2.5 2.5 1.12 2.5 2.5zm-20 0c0 1.38-1.12 2.5-2.5 2.5s-2.5-1.12-2.5-2.5 1.12-2.5 2.5-2.5 2.5 1.12 2.5 2.5zm-20 0c0 1.38-1.12 2.5-2.5 2.5s-2.5-1.12-2.5-2.5 1.12-2.5 2.5-2.5 2.5 1.12 2.5 2.5zm-20 0c0 1.38-1.12 2.5-2.5 2.5s-2.5-1.12-2.5-2.5 1.12-2.5 2.5-2.5 2.5 1.12 2.5 2.5zm-20 0c0 1.38-1.12 2.5-2.5 2.5s-2.5-1.12-2.5-2.5 1.12-2.5 2.5-2.5 2.5 1.12 2.5 2.5zm-20 0c0 1.38-1.12 2.5-2.5 2.5s-2.5-1.12-2.5-2.5 1.12-2.5 2.5-2.5 2.5 1.12 2.5 2.5zm-20 0c0 1.38-1.12 2.5-2.5 2.5s-2.5-1.12-2.5-2.5 1.12-2.5 2.5-2.5 2.5 1.12 2.5 2.5zm-20 0c0 1.38-1.12 2.5-2.5 2.5s-2.5-1.12-2.5-2.5 1.12-2.5 2.5-2.5 2.5 1.12 2.5 2.5zm-20 0c0 1.38-1.12 2.5-2.5 2.5s-2.5-1.12-2.5-2.5 1.12-2.5 2.5-2.5 2.5 1.12 2.5 2.5zm-20 0c0 1.38-1.12 2.5-2.5 2.5s-2.5-1.12-2.5-2.5 1.12-2.5 2.5-2.5 2.5 1.12 2.5 2.5zm-20 0c0 1.38-1.12 2.5-2.5 2.5s-2.5-1.12-2.5-2.5 1.12-2.5 2.5-2.5 2.5 1.12 2.5 2.5zm-20 0c0 1.38-1.12 2.5-2.5 2.5s-2.5-1.12-2.5-2.5 1.12-2.5 2.5-2.5 2.5 1.12 2.5 2.5zm-20 0c0 1.38-1.12 2.5-2.5 2.5s-2.5-1.12-2.5-2.5 1.12-2.5 2.5-2.5 2.5 1.12 2.5 2.5zm-20 0c0 1.38-1.12 2.5-2.5 2.5s-2.5-1.12-2.5-2.5 1.12-2.5 2.5-2.5 2.5 1.12 2.5 2.5zm-20 0c0 1.38-1.12 2.5-2.5 2.5s-2.5-1.12-2.5-2.5 1.12-2.5 2.5-2.5 2.5 1.12 2.5 2.5zm-20 0c0 1.38-1.12 2.5-2.5 2.5s-2.5-1.12-2.5-2.5 1.12-2.5 2.5-2.5 2.5 1.12 2.5 2.5zm-20 0c0 1.38-1.12 2.5-2.5 2.5s-2.5-1.12-2.5-2.5 1.12-2.5 2.5-2.5 2.5 1.12 2.5 2.5zm-20 0c0 1.38-1.12 2.5-2.5 2.5s-2.5-1.12-2.5-2.5 1.12-2.5 2.5-2.5 2.5 1.12 2.5 2.5zm-20 0c0 1.38-1.12 2.5-2.5 2.5s-2.5-1.12-2.5-2.5 1.12-2.5 2.5-2.5 2.5 1.12 2.5 2.5zm-20 0c0 1.38-1.12 2.5-2.5 2.5s-2.5-1.12-2.5-2.5 1.12-2.5 2.5-2.5 2.5 1.12 2.5 2.5zm-20 0c0 1.38-1.12 2.5-2.5 2.5s-2.5-1.12-2.5-2.5 1.12-2.5 2.5-2.5 2.5 1.12 2.5 2.5zm-20 0c0 1.38-1.12 2.5-2.5 2.5s-2.5-1.12-2.5-2.5 1.12-2.5 2.5-2.5 2.5 1.12 2.5 2.5zm-20 0c0 1.38-1.12 2.5-2.5 2.5s-2.5-1.12-2.5-2.5 1.12-2.5 2.5-2.5 2.5 1.12 2.5 2.5zm-20 0c0 1.38-1.12 2.5-2.5 2.5s-2.5-1.12-2.5-2.5 1.12-2.5 2.5-2.5 2.5 1.12 2.5 2.5zm-20 0c0 1.38-1.12 2.5-2.5 2.5s-2.5-1.12-2.5-2.5 1.12-2.5 2.5-2.5 2.5 1.12 2.5 2.5zm-20 0c0 1.38-1.12 2.5-2.5 2.5s-2.5-1.12-2.5-2.5 1.12-2.5 2.5-2.5 2.5 1.12 2.5 2.5zm-20 0c0 1.38-1.12 2.5-2.5 2.5s-2.5-1.12-2.5-2.5 1.12-2.5 2.5-2.5 2.5 1.12 2.5 2.5zm-20 0c0 1.38-1.12 2.5-2.5 2.5s-2.5-1.12-2.5-2.5 1.12-2.5 2.5-2.5 2.5 1.12 2.5 2.5zm-20 0c0 1.38-1.12 2.5-2.5 2.5s-2.5-1.12-2.5-2.5 1.12-2.5 2.5-2.5 2.5 1.12 2.5 2.5zm-20 0c0 1.38-1.12 2.5-2.5 2.5s-2.5-1.12-2.5-2.5 1.12-2.5 2.5-2.5 2.5 1.12 2.5 2.5zm-20 0c0 1.38-1.12 2.5-2.5 2.5s-2.5-1.12-2.5-2.5 1.12-2.5 2.5-2.5 2.5 1.12 2.5 2.5zm-20 0c0 1.38-1.12 2.5-2.5 2.5s-2.5-1.12-2.5-2.5 1.12-2.5 2.5-2.5 2.5 1.12 2.5 2.5zm-20 0c0 1.38-1.12 2.5-2.5 2.5s-2.5-1.12-2.5-2.5 1.12-2.5 2.5-2.5 2.5 1.12 2.5 2.5zm-20 0c0 1.38-1.12 2.5-2.5 2.5s-2.5-1.12-2.5-2.5 1.12-2.5 2.5-2.5 2.5 1.12 2.5 2.5zm-20 0c0 1.38-1.12 2.5-2.5 2.5s-2.5-1.12-2.5-2.5 1.12-2.5 2.5-2.5 2.5 1.12 2.5 2.5zm-20 0c0 1.38-1.12 2.5-2.5 2.5s-2.5-1.12-2.5-2.5 1.12-2.5 2.5-2.5 2.5 1.12 2.5 2.5zm-20 0c0 1.38-1.12 2.5-2.5 2.5s-2.5-1.12-2.5-2.5 1.12-2.5 2.5-2.5 2.5 1.12 2.5 2.5zm-20 0c0 1.38-1.12 2.5-2.5 2.5s-2.5-1.12-2.5-2.5 1.12-2.5 2.5-2.5 2.5 1.12 2.5 2.5zm-20 0c0 1.38-1.12 2.5-2.5 2.5s-2.5-1.12-2.5-2.5 1.12-2.5 2.5-2.5 2.5 1.12 2.5 2.5zm0-20c0 1.38-1.12 2.5-2.5 2.5s-2.5-1.12-2.5-2.5 1.12-2.5 2.5-2.5 2.5 1.12 2.5 2.5zm0-20c0 1.38-1.12 2.5-2.5 2.5s-2.5-1.12-2.5-2.5 1.12-2.5 2.5-2.5 2.5 1.12 2.5 2.5zm0-20c0 1.38-1.12 2.5-2.5 2.5s-2.5-1.12-2.5-2.5 1.12-2.5 2.5-2.5 2.5 1.12 2.5 2.5zm0-20c0 1.38-1.12 2.5-2.5 2.5s-2.5-1.12-2.5-2.5 1.12-2.5 2.5-2.5 2.5 1.12 2.5 2.5zm0-20c0 1.38-1.12 2.5-2.5 2.5s-2.5-1.12-2.5-2.5 1.12-2.5 2.5-2.5 2.5 1.12 2.5 2.5zm0-20c0 1.38-1.12 2.5-2.5 2.5s-2.5-1.12-2.5-2.5 1.12-2.5 2.5-2.5 2.5 1.12 2.5 2.5zm0-20c0 1.38-1.12 2.5-2.5 2.5s-2.5-1.12-2.5-2.5 1.12-2.5 2.5-2.5 2.5 1.12 2.5 2.5zm0-20c0 1.38-1.12 2.5-2.5 2.5s-2.5-1.12-2.5-2.5 1.12-2.5 2.5-2.5 2.5 1.12 2.5 2.5zm0-20c0 1.38-1.12 2.5-2.5 2.5s-2.5-1.12-2.5-2.5 1.12-2.5 2.5-2.5 2.5 1.12 2.5 2.5zm0-20c0 1.38-1.12 2.5-2.5 2.5s-2.5-1.12-2.5-2.5 1.12-2.5 2.5-2.5 2.5 1.12 2.5 2.5zm0-20c0 1.38-1.12 2.5-2.5 2.5s-2.5-1.12-2.5-2.5 1.12-2.5 2.5-2.5 2.5 1.12 2.5 2.5zm0-20c0 1.38-1.12 2.5-2.5 2.5s-2.5-1.12-2.5-2.5 1.12-2.5 2.5-2.5 2.5 1.12 2.5 2.5zm0-20c0 1.38-1.12 2.5-2.5 2.5s-2.5-1.12-2.5-2.5 1.12-2.5 2.5-2.5 2.5 1.12 2.5 2.5zm0-20c0 1.38-1.12 2.5-2.5 2.5s-2.5-1.12-2.5-2.5 1.12-2.5 2.5-2.5 2.5 1.12 2.5 2.5zm0-20c0 1.38-1.12 2.5-2.5 2.5s-2.5-1.12-2.5-2.5 1.12-2.5 2.5-2.5 2.5 1.12 2.5 2.5zm0-20c0 1.38-1.12 2.5-2.5 2.5s-2.5-1.12-2.5-2.5 1.12-2.5 2.5-2.5 2.5 1.12 2.5 2.5zm0-20c0 1.38-1.12 2.5-2.5 2.5s-2.5-1.12-2.5-2.5 1.12-2.5 2.5-2.5 2.5 1.12 2.5 2.5zm0-20c0 1.38-1.12 2.5-2.5 2.5s-2.5-1.12-2.5-2.5 1.12-2.5 2.5-2.5 2.5 1.12 2.5 2.5zm0-20c0 1.38-1.12 2.5-2.5 2.5s-2.5-1.12-2.5-2.5 1.12-2.5 2.5-2.5 2.5 1.12 2.5 2.5zm0-20c0 1.38-1.12 2.5-2.5 2.5s-2.5-1.12-2.5-2.5 1.12-2.5 2.5-2.5 2.5 1.12 2.5 2.5zm0-20c0 1.38-1.12 2.5-2.5 2.5s-2.5-1.12-2.5-2.5 1.12-2.5 2.5-2.5 2.5 1.12 2.5 2.5zm0-20c0 1.38-1.12 2.5-2.5 2.5s-2.5-1.12-2.5-2.5 1.12-2.5 2.5-2.5 2.5 1.12 2.5 2.5zm0-20c0 1.38-1.12 2.5-2.5 2.5s-2.5-1.12-2.5-2.5 1.12-2.5 2.5-2.5 2.5 1.12 2.5 2.5zm0-20c0 1.38-1.12 2.5-2.5 2.5s-2.5-1.12-2.5-2.5 1.12-2.5 2.5-2.5 2.5 1.12 2.5 2.5zm0-20c0 1.38-1.12 2.5-2.5 2.5s-2.5-1.12-2.5-2.5 1.12-2.5 2.5-2.5 2.5 1.12 2.5 2.5zm0-20c0 1.38-1.12 2.5-2.5 2.5s-2.5-1.12-2.5-2.5 1.12-2.5 2.5-2.5 2.5 1.12 2.5 2.5zm0-20c0 1.38-1.12 2.5-2.5 2.5s-2.5-1.12-2.5-2.5 1.12-2.5 2.5-2.5 2.5 1.12 2.5 2.5zm0-20c0 1.38-1.12 2.5-2.5 2.5s-2.5-1.12-2.5-2.5 1.12-2.5 2.5-2.5 2.5 1.12 2.5 2.5zm0-20c0 1.38-1.12 2.5-2.5 2.5s-2.5-1.12-2.5-2.5 1.12-2.5 2.5-2.5 2.5 1.12 2.5 2.5zm0-20c0 1.38-1.12 2.5-2.5 2.5s-2.5-1.12-2.5-2.5 1.12-2.5 2.5-2.5 2.5 1.12 2.5 2.5zm0-20c0 1.38-1.12 2.5-2.5 2.5s-2.5-1.12-2.5-2.5 1.12-2.5 2.5-2.5 2.5 1.12 2.5 2.5zm0-20c0 1.38-1.12 2.5-2.5 2.5s-2.5-1.12-2.5-2.5 1.12-2.5 2.5-2.5 2.5 1.12 2.5 2.5zm0-20c0 1.38-1.12 2.5-2.5 2.5s-2.5-1.12-2.5-2.5 1.12-2.5 2.5-2.5 2.5 1.12 2.5 2.5zm0-20c0 1.38-1.12 2.5-2.5 2.5s-2.5-1.12-2.5-2.5 1.12-2.5 2.5-2.5 2.5 1.12 2.5 2.5zm0-20c0 1.38-1.12 2.5-2.5 2.5s-2.5-1.12-2.5-2.5 1.12-2.5 2.5-2.5 2.5 1.12 2.5 2.5zm0-20c0 1.38-1.12 2.5-2.5 2.5s-2.5-1.12-2.5-2.5 1.12-2.5 2.5-2.5 2.5 1.12 2.5 2.5zm0-20c0 1.38-1.12 2.5-2.5 2.5s-2.5-1.12-2.5-2.5 1.12-2.5 2.5-2.5 2.5 1.12 2.5 2.5zm0-20c0 1.38-1.12 2.5-2.5 2.5s-2.5-1.12-2.5-2.5 1.12-2.5 2.5-2.5 2.5 1.12 2.5 2.5zm0-20c0 1.38-1.12 2.5-2.5 2.5s-2.5-1.12-2.5-2.5 1.12-2.5 2.5-2.5 2.5 1.12 2.5 2.5zm0-20c0 1.38-1.12 2.5-2.5 2.5s-2.5-1.12-2.5-2.5 1.12-2.5 2.5-2.5 2.5 1.12 2.5 2.5zm0-20c0 1.38-1.12 2.5-2.5 2.5s-2.5-1.12-2.5-2.5 1.12-2.5 2.5-2.5 2.5 1.12 2.5 2.5zm0-20c0 1.38-1.12 2.5-2.5 2.5s-2.5-1.12-2.5-2.5 1.12-2.5 2.5-2.5 2.5 1.12 2.5 2.5zm0-20c0 1.38-1.12 2.5-2.5 2.5s-2.5-1.12-2.5-2.5 1.12-2.5 2.5-2.5 2.5 1.12 2.5 2.5zm0-20c0 1.38-1.12 2.5-2.5 2.5s-2.5-1.12-2.5-2.5 1.12-2.5 2.5-2.5 2.5 1.12 2.5 2.5zm0-20c0 1.38-1.12 2.5-2.5 2.5s-2.5-1.12-2.5-2.5 1.12-2.5 2.5-2.5 2.5 1.12 2.5 2.5zm0-20c0 1.38-1.12 2.5-2.5 2.5s-2.5-1.12-2.5-2.5 1.12-2.5 2.5-2.5 2.5 1.12 2.5 2.5zm0-20c0 1.38-1.12 2.5-2.5 2.5s-2.5-1.12-2.5-2.5 1.12-2.5 2.5-2.5 2.5 1.12 2.5 2.5zm0-20c0 1.38-1.12 2.5-2.5 2.5s-2.5-1.12-2.5-2.5 1.12-2.5 2.5-2.5 2.5 1.12 2.5 2.5zm0-20c0 1.38-1.12 2.5-2.5 2.5s-2.5-1.12-2.5-2.5 1.12-2.5 2.5-2.5 2.5 1.12 2.5 2.5zm0-20c0 1.38-1.12 2.5-2.5 2.5s-2.5-1.12-2.5-2.5 1.12-2.5 2.5-2.5 2.5 1.12 2.5 2.5zm0-20c0 1.38-1.12 2.5-2.5 2.5s-2.5-1.12-2.5-2.5 1.12-2.5 2.5-2.5 2.5 1.12 2.5 2.5zm0-20c0 1.38-1.12 2.5-2.5 2.5s-2.5-1.12-2.5-2.5 1.12-2.5 2.5-2.5 2.5 1.12 2.5 2.5zm0-20c0 1.38-1.12 2.5-2.5 2.5s-2.5-1.12-2.5-2.5 1.12-2.5 2.5-2.5 2.5 1.12 2.5 2.5zm0-20c0 1.38-1.12 2.5-2.5 2.5s-2.5-1.12-2.5-2.5 1.12-2.5 2.5-2.5 2.5 1.12 2.5 2.5zm0-20c0 1.38-1.12 2.5-2.5 2.5s-2.5-1.12-2.5-2.5 1.12-2.5 2.5-2.5 2.5 1.12 2.5 2.5zm0-20c0 1.38-1.12 2.5-2.5 2.5s-2.5-1.12-2.5-2.5 1.12-2.5 2.5-2.5 2.5 1.12 2.5 2.5zm0-20c0 1.38-1.12 2.5-2.5 2.5s-2.5-1.12-2.5-2.5 1.12-2.5 2.5-2.5 2.5 1.12 2.5 2.5zm0-20c0 1.38-1.12 2.5-2.5 2.5s-2.5-1.12-2.5-2.5 1.12-2.5 2.5-2.5 2.5 1.12 2.5 2.5z" fill="#0078d7"/><path d="M660 482c0-1.1.9-2 2-2h996c1.1 0 2 .9 2 2v596c0 1.1-.9 2-2 2H662c-1.1 0-2-.9-2-2z" stroke="#d8d8d8" stroke-width="4" fill="#f2f2f2"/><path d="M1575.57 253.44c6.43 23.26-8.57 47.04-33.55 52.97-24.88 6.02-50.33-8-56.66-31.35-6.43-23.26 8.57-46.96 33.55-52.97.47-.08.75-.17 1.22-.26 24.7-5.3 49.3 8.7 55.45 31.62z" stroke="#000" stroke-opacity="0" stroke-width="6.82" fill="#59b4d9"/><path d="M1524.2 281.3c0-6.32-5.5-11.44-12.23-11.44h-2.3c0-.23 0-.38.1-.53 1.37-5.95-2.6-11.82-8.94-13.18h-15.18c-2.95 13.78 1 26.73 11.13 37.12h15.2c6.9-.3 12.23-5.57 12.23-11.97zm15.2-47.5v2.17h-5.25c-7.1 0-12.9 5.42-12.9 12.05 0 6.62 5.8 11.97 12.9 11.97h42.6c-1.2-14.84-9.75-26.97-23.92-33.82h-5.62c-4.42.07-7.92 3.54-7.83 7.6zm37.36 34.4h-25.12-.1c-5.7 0-10.4 4.37-10.4 9.8.1 1.8.46 3.23 1.2 4.88-5.43 1.66-8.47 6.93-7 12.05 1.2 4.14 5.25 6.85 9.85 6.55h7.08c14-6.93 22.64-18.6 24.48-33.28z" stroke="#000" stroke-opacity="0" stroke-width="6.82" fill="#fff" fill-opacity=".5"/><path d="M1478.67 234.9c-.6-.03-1.1-.48-1.14-1.07 0-8.45-7.32-15.3-16.35-15.3-.6.57-1.18-.52-1.18-1.08.04-.6.53-1.04 1.18-1.08 9.03 0 16.35-6.84 16.35-15.3 0-1.07.57-1.07 1.14-1.07.6 0 1.75 0 1.75 1.08 0 8.45 7.32 15.3 16.35 15.3.65 0 1.18.48 1.18 1.07 0 .6-.53 1.1-1.18 1.1-9.03 0-16.35 6.83-16.35 15.28 0 .52-.57 1.08-1.75 1.08z" stroke="#000" stroke-opacity="0" stroke-width="6.82" fill="#b8d432"/><path d="M1578.5 320c-.57 0-.57 0-.57-.55-.22-4.95-4.6-8.84-9.93-8.72-.58 0-.58 0-.58-.55s0-.55.58-.55c5.25-.08 9.5-3.83 9.93-8.72 0-.54 0-.54.58-.54.6 0 .6 0 .6.55.2 4.96 4.6 8.85 9.93 8.73.57 0 .57 0 .57.55s0 .55-.57.55c-5.26.08-9.52 3.83-9.94 8.72.6.55 0 .55-.6.55z" stroke="#000" stroke-opacity="0" stroke-width="6.82" fill="#59b4d9"/><path d="M1598.33 225.1c-4.6-6.58-15.16-8.2-32.14-4.33-5.43 1.17-9.88 2.43-15.17 4.32 3.34 1.6 5.98 3.22 8.76 5.47 2.92-.54 5.84-1.62 8.2-2.25 4.6-1.08 8.63-1.62 13.5-1.62 5.14 0 8.07 1.08 9.32 2.8 1.67 2.7 0 9.26-9.32 19.6-1.95 2.07-3.76 3.7-5.85 5.5-11.26 9.97-21.84 17.53-35.05 25-13.08 7.73-25.04 12.77-39.8 16.9-16.82 4.95-28.5 4.95-30.88 1.17-2.36-3.86 2.37-13.67 15.17-25.1-.7-3.4-1.12-6.38-1.12-9.9-19.9 16.92-26.3 31.68-21.7 39.32 4.58 4.85 10.7 7.2 17.52 6.56 10.85-.36 19.9-2.25 29.77-6.03 12.94-4.6 23.37-9.44 35.06-16.37 11.7-6.84 21.15-13.3 31.58-21.77 4.18-3.43 7.52-6.48 11-10.44 11.7-12.5 15.3-22.3 11.13-28.87z" stroke="#000" stroke-opacity="0" stroke-width="6.82"/><use xlink:href="#a" transform="matrix(1,0,0,1,1430,329.00000000000006) translate(26.099999999999994 14.4)"/><use xlink:href="#b" transform="matrix(1,0,0,1,1430,329.00000000000006) translate(78.05 14.4)"/><use xlink:href="#c" transform="matrix(1,0,0,1,1430,329.00000000000006) translate(148.95 14.4)"/><path d="M356.48 427.64c-10.92 8.4-22.68 12.36-36.36 12.36-18.12 0-36-8.16-47.76-23.52-20.16-26.28-15.12-63.96 11.16-84.12C294.44 323.96 307.28 320 320 320c18 0 35.88 8.16 47.64 23.52 20.16 26.28 15.12 63.96-11.16 84.12" stroke="#000" stroke-opacity="0" stroke-width="3" fill="#59b4d9"/><path d="M345.46 390.5c4.35 5.7 12.4 6.74 18.06 2.4.33-.22.55-.42.77-.73 5.86 4.14 9.78 6.83 12.07 8.28.65-1.65 1.2-3.3 1.63-5.07-3.7-2.8-6.75-5.18-10.34-8.08 1.52-4.04 1.1-8.7-1.74-12.43-3.92-5.18-11-6.53-16.65-3.32-7.08-6.42-13.06-12-19.92-18.74 22.1-11.9 37.66-10.14 37.66-10.14-2.6-3.32-5.54-6.22-8.6-8.8-9.35-1.46-23.72-1.36-40.15 7.45-6.1-6.4-11.1-11.9-16.76-18.53-2.95.93-5.34 1.86-7.95 3.2 4.13 6.95 9.8 13.78 16.2 20.62-6.3 4.45-11.3 8.8-16.64 14.5-.75.72-1.4 1.44-2.06 2.17-3.37-.73-6.53-.52-9.9.72-5.33-11.82-4.9-21.24-4.14-26-2.28 2.38-4.46 5.07-6.42 7.76-1.4 5.8-1.85 14.2 2.4 24.24-5.12 6.63-5.12 15.43 0 21.96.43.62.87 1.14 1.3 1.55-2.07 7.26-3.15 13.58-3.48 21.04.54.83.54 1.45 1.1 2.18 2.93 3.72 6.52 6.83 10 9.63-.43-6.63 0-16.37 4.14-27.35 2.93.3 5.55-.1 8.38-1.34 1.52 1.34 3.04 2.8 4.78 4.14 5.77 4.56 11 7.87 17.53 11.2-.33 3.1.43 5.9 2.28 8.38 4.04 5.28 11.55 6.2 16.77 2.17 1.1-.83 1.96-1.66 2.72-2.9 9.24 2.07 17.4 2.5 23.5 2.5.87 0 5.22-5.92 7.73-9.54-3.7.84-14.7 2.3-29.6-1.96-.33-1.86-.98-3.3-2.18-4.76-3.7-4.98-10.67-6-15.78-2.7-6.1-3.3-10.9-6.52-16.33-10.77-1.1-.92-2.06-1.75-3.15-2.68 3.47-5.7 3.8-12.23.75-18.13.65-.73 1.3-1.36 2.07-2.08 5.55-5.18 10.77-9.32 15.67-12.64-.23-.2-.45-.4-.66-.62l.65.62c7.4 6.94 15.33 13.47 22.84 19.37-1.96 4.14-1.63 9.32 1.42 13.26z" stroke="#000" stroke-opacity="0" stroke-width="3" fill="#fff"/><use xlink:href="#d" transform="matrix(1,0,0,1,230,449.00000000000006) translate(30.924999999999997 14.4)"/><use xlink:href="#e" transform="matrix(1,0,0,1,230,449.00000000000006) translate(110.175 14.4)"/><path d="M596.48 427.64c-10.92 8.4-22.68 12.36-36.36 12.36-18.12 0-36-8.16-47.76-23.52-20.16-26.28-15.12-63.96 11.16-84.12C534.44 323.96 547.28 320 560 320c18 0 35.88 8.16 47.64 23.52 20.16 26.28 15.12 63.96-11.16 84.12" stroke="#000" stroke-opacity="0" stroke-width="3" fill="#59b4d9"/><path d="M585.46 390.5c4.35 5.7 12.4 6.74 18.06 2.4.33-.22.55-.42.77-.73 5.86 4.14 9.78 6.83 12.07 8.28.65-1.65 1.2-3.3 1.63-5.07-3.7-2.8-6.75-5.18-10.34-8.08 1.52-4.04 1.1-8.7-1.74-12.43-3.92-5.18-11-6.53-16.65-3.32-7.08-6.42-13.06-12-19.92-18.74 22.1-11.9 37.66-10.14 37.66-10.14-2.6-3.32-5.54-6.22-8.6-8.8-9.35-1.46-23.72-1.36-40.15 7.45-6.1-6.4-11.1-11.9-16.76-18.53-2.95.93-5.34 1.86-7.95 3.2 4.13 6.95 9.8 13.78 16.2 20.62-6.3 4.45-11.3 8.8-16.64 14.5-.75.72-1.4 1.44-2.06 2.17-3.37-.73-6.53-.52-9.9.72-5.33-11.82-4.9-21.24-4.14-26-2.28 2.38-4.46 5.07-6.42 7.76-1.4 5.8-1.85 14.2 2.4 24.24-5.12 6.63-5.12 15.43 0 21.96.43.62.87 1.14 1.3 1.55-2.07 7.26-3.15 13.58-3.48 21.04.54.83.54 1.45 1.1 2.18 2.93 3.72 6.52 6.83 10 9.63-.43-6.63 0-16.37 4.14-27.35 2.93.3 5.55-.1 8.38-1.34 1.52 1.34 3.04 2.8 4.78 4.14 5.77 4.56 11 7.87 17.53 11.2-.33 3.1.43 5.9 2.28 8.38 4.04 5.28 11.55 6.2 16.77 2.17 1.1-.83 1.96-1.66 2.72-2.9 9.24 2.07 17.4 2.5 23.5 2.5.87 0 5.22-5.92 7.73-9.54-3.7.84-14.7 2.3-29.6-1.96-.33-1.86-.98-3.3-2.18-4.76-3.7-4.98-10.67-6-15.78-2.7-6.1-3.3-10.9-6.52-16.33-10.77-1.1-.92-2.06-1.75-3.15-2.68 3.47-5.7 3.8-12.23.75-18.13.65-.73 1.3-1.36 2.07-2.08 5.55-5.18 10.77-9.32 15.67-12.64-.23-.2-.45-.4-.66-.62l.65.62c7.4 6.94 15.33 13.47 22.84 19.37-1.96 4.14-1.63 9.32 1.42 13.26z" stroke="#000" stroke-opacity="0" stroke-width="3" fill="#fff"/><use xlink:href="#f" transform="matrix(1,0,0,1,470,449.00000000000006) translate(9.974999999999994 14.4)"/><use xlink:href="#g" transform="matrix(1,0,0,1,470,449.00000000000006) translate(51.57499999999999 14.4)"/><use xlink:href="#h" transform="matrix(1,0,0,1,470,449.00000000000006) translate(85.57499999999999 14.4)"/><use xlink:href="#e" transform="matrix(1,0,0,1,470,449.00000000000006) translate(131.125 14.4)"/><use xlink:href="#i" transform="matrix(1,0,0,1,470,449.00000000000006) translate(107.505 36)"/><path d="M375.7 356.5H493.5" stroke="#666" fill="none"/><path d="M375.72 357h-.3l-.4-1h.7z" fill="#666"/><path d="M508.25 356.5l-14.27 4.63v-9.27z" stroke="#666" fill="#666"/><path d="M507.83 410.53h-119.8" stroke="#666" fill="none"/><path d="M508.33 410.53l.32.5h-.83v-1h.24z" fill="#666"/><path d="M373.27 410.53l14.27-4.63v9.27z" stroke="#666" fill="#666"/><path d="M560 319.5V272c0-6.63 5.37-12 12-12h895.7" stroke="#666" fill="none"/><path d="M560.5 320.03l-.5-.03-.5.03v-.54h1z" fill="#666"/><path d="M1482.47 260l-14.26 4.64v-9.28z" stroke="#666" fill="#666"/><path d="M1539.24 1217.96c1.1-1.1.9-3.17 0-4.34l-5.8-5.8-25.87-25.24c-1.14-1.1-2.8-1.1-4.14 0-1.14 1.17-1.48 3.24 0 4.34l27.2 26.7c1.1 1.17 1.1 3.24 0 4.34l-27.77 27.66c-1.1 1.1-1.1 3.18 0 4.35 1.14 1.1 3.2.9 4.14 0l25.67-25.6.2-.2 6.37-6.2zM1420.76 1217.96c-1.1-1.1-.9-3.17 0-4.34l5.8-5.8 25.87-25.24c1.14-1.1 2.8-1.1 4.14 0 1.14 1.17 1.48 3.24 0 4.34l-26.62 26.7c-1.1 1.17-1.1 3.24 0 4.34l27.2 27.66c1.1 1.1 1.1 3.18 0 4.35-1.15 1.1-3.2.9-4.15 0l-26.24-25.25-.2-.14-5.8-6.62z" stroke="#000" stroke-opacity="0" stroke-width="2.34" fill="#3999c6"/><path d="M1509.25 1161.7h-36.58l-19.66 55.74 24 .1-18.75 55.17 51.74-73.58h-25.14l24.4-37.4z" stroke="#000" stroke-opacity="0" stroke-width="2.34" fill="#fcd116"/><path d="M1484.85 1199.12l24.4-37.4h-19.13L1469.9 1208l23.95.22-35.6 64.5 51.74-73.6h-25.15z" stroke="#000" stroke-opacity="0" stroke-width="2.34" fill="#ff8c00" fill-opacity=".3"/><path d="M1473.9 1164.1l-5.7 19.14-14.53.94-32.2 31.53 32.3 32.7 12.45 5.2-5.8 14.26 11.85-16.55 30.58-1.35 34.88-34.03-31.86-31.95-11.86-.52 11.52-19.67z" stroke="#000" stroke-opacity="0" stroke-width="0" fill-opacity="0"/><use xlink:href="#j" transform="matrix(1,0,0,1,1390,1281.7131365139546) translate(32.55 14.4)"/><use xlink:href="#k" transform="matrix(1,0,0,1,1390,1281.7131365139546) translate(106.45 14.4)"/><path d="M1143.77 1201.26v-13.12h-7.54v13.12c0 10.53-24.33 0-24.33 17.1v13.65h5.67v-13.63c0-9.17 22.43-3.55 22.43-12.02 0 8.55 22.43 2.85 22.43 12.02V1232h5.67v-13.63c0-17.1-24.33-6.58-24.33-17.1z" stroke="#000" stroke-opacity="0" stroke-width=".72" fill="#59b4d9"/><path d="M1146.5 1169.83h-13.2c-2.74 0-4.68 2.08-4.68 4.83v13.3c0 2.78 1.94 4.67 4.7 4.67h13.2c2.74 0 4.86-1.9 4.86-4.67v-13.3c0-2.75-2.32-4.83-4.87-4.83zm-11.1 16.08h9.04v-9.16h-9.04v9.17z" stroke="#000" stroke-opacity="0" stroke-width=".72" fill="#0072c6"/><path d="M1099.14 1256.7c-9.13 0-14.15-4.07-14.15-12.8v-25.57c0-4.18-1.65-5.8-5-5.8v-6.45c3.35 0 5-1.52 5-6v-25.45c0-9.3 5.24-12.92 14.14-12.92v6.38c-3.56 0-5.5 2.37-5.5 6.55v25.46c0 5.5-1.8 7.6-5.37 9.1 3.37 1.53 5.36 3.62 5.36 9.13v25.56c0 3.7 1.62 6.45 5.5 6.45v6.36zM1180.86 1161.7c8.6 0 14.15 4.3 14.15 12.93v25.46c0 4.17 1.65 5.98 5 5.98v6.46c-3.35 0-5 1.33-5 5.8v25.55c0 9.3-5.24 12.8-14.14 12.8v-6.35c3.56 0 5.5-2.2 5.5-6.46v-25.57c0-5.5 1.62-7.6 5.2-9.12-3.37-1.7-5.2-3.6-5.2-9.1v-25.47c0-3.6-1.6-6.55-5.5-6.55v-6.37z" stroke="#000" stroke-opacity="0" stroke-width=".72" fill="#59b4d9"/><path d="M1109.3 1222.17h10.7c3.45 0 5.17 1.73 5.17 5.18v10.7c0 3.46-1.72 5.2-5.17 5.2h-10.7c-3.44 0-5.16-1.74-5.16-5.2v-10.7c0-3.45 1.72-5.18 5.17-5.18zM1159.66 1222.17h10.68c3.45 0 5.18 1.73 5.18 5.18v10.7c0 3.46-1.73 5.2-5.18 5.2h-10.68c-3.45 0-5.18-1.74-5.18-5.2v-10.7c0-3.45 1.73-5.18 5.18-5.18z" stroke="#000" stroke-opacity="0" stroke-width=".72" fill="#7fba00"/><path d="M1087.7 1167v83.84h104.77V1167zm0 0h104.77v83.84H1087.7z" stroke="#000" stroke-opacity="0" stroke-width="0" fill-opacity="0"/><path d="M1097.98 1162.9l84.5.46 8.22 4.34 1.92 32.66 3.83 8.97-5.4 8.05-.9 33.03-7.46 4.54-84.83.46-7.9-3.5-1.24-37.48-5.08-5.46 6.1-5.08.78-37.75z" stroke="#000" stroke-opacity="0" stroke-width="0" fill-opacity="0"/><use xlink:href="#l" transform="matrix(1,0,0,1,1050,1265.7131365139546) translate(45.525 14.4)"/><use xlink:href="#k" transform="matrix(1,0,0,1,1050,1265.7131365139546) translate(93.475 14.4)"/><path d="M109.15 202.84c-.22 0-.37-.04-.58-.17l-35.32-20.4c-.3-.2-.5-.55-.5-.93 0-.4.2-.73.5-.9l35.1-20.3c.36-.18.72-.18 1.1 0l35.3 20.42c.3.18.5.56.5.9 0 .43-.2.78-.5.95l-35.1 20.27c-.14.13-.36.17-.5.17" stroke="#000" stroke-opacity="0" fill="#3999c6"/><path d="M104.04 252.46c-.18 0-.37-.06-.56-.12l-35.16-20.4c-.37-.2-.56-.5-.56-.88V190.2c0-.38.2-.76.56-.95.3-.2.7-.2 1.04 0l35.2 20.4c.34.2.53.5.53.9v40.84c0 .37-.2.75-.53.94-.2.06-.34.12-.53.12M114 252.46c-.18 0-.37-.06-.55-.12-.34-.2-.53-.57-.53-.95v-40.56c0-.38.2-.76.53-.95l35.18-20.38c.34-.2.75-.2 1.1 0 .3.2.5.57.5.95v40.55c0 .44-.18.76-.5.95l-35.2 20.37c-.15.06-.34.12-.52.12" stroke="#000" stroke-opacity="0" fill="#59b4d9"/><path d="M114 252.46c-.18 0-.37-.06-.55-.12-.34-.2-.53-.57-.53-.95v-40.56c0-.38.2-.76.53-.95l35.18-20.38c.34-.2.75-.2 1.1 0 .3.2.5.57.5.95v40.55c0 .44-.18.76-.5.95l-35.2 20.37c-.15.06-.34.12-.52.12" stroke="#000" stroke-opacity="0" fill="#fff" fill-opacity=".5"/><path d="M71.95 257c-.6 0-1.2-.2-1.75-.48l-16.44-9.5C51 245.45 49 241.96 49 238.75v-60.52c0-3.2 2-6.7 4.76-8.25l16.44-9.5c1.67-.98 3.8-.4 4.76 1.25.98 1.65.4 3.78-1.27 4.75L57.24 176c-.58.4-1.27 1.56-1.27 2.24v60.52c0 .68.7 1.85 1.27 2.24l16.44 9.5c1.66.97 2.24 3.1 1.26 4.75-.64 1.17-1.83 1.75-3 1.75zM146.05 160c.6 0 1.2.2 1.75.48l16.44 9.5c2.75 1.56 4.76 5.05 4.76 8.26v60.52c0 3.2-2 6.7-4.76 8.25l-16.44 9.5c-1.67.98-3.8.4-4.76-1.25-.98-1.65-.4-3.78 1.27-4.75l16.45-9.5c.58-.4 1.27-1.56 1.27-2.24v-60.52c0-.68-.7-1.85-1.27-2.24l-16.44-9.5c-1.66-.97-2.24-3.1-1.26-4.75.64-1.17 1.83-1.75 3-1.75z" stroke="#000" stroke-opacity="0" fill="#7a7a7a"/><path d="M71.68 162.14l74.4.1 18.6 13 1 66.1-20.95 13.77-73.05-.36-19.83-13.1s-.34-67.23.22-67.04c.46.28 19.6-12.46 19.6-12.46z" stroke="#000" stroke-opacity="0" stroke-width="0" fill-opacity="0"/><use xlink:href="#m" transform="matrix(1,0,0,1,19,266) translate(24.07499999999999 14.4)"/><use xlink:href="#n" transform="matrix(1,0,0,1,19,266) translate(105.975 14.4)"/><path d="M1185.52 766.28h-91.13c-7.92 0-14.4-6.38-14.4-14.3v-95.7h119.9v95.7c0 7.92-6.46 14.3-14.38 14.3z" stroke="#000" stroke-opacity="0" fill="#3e3e3e"/><path d="M1089.6 728.02h55.15v28.7h-55.16v-28.7zM1089.6 656.28h16.78v28.7h-16.8v-28.7z" stroke="#000" stroke-opacity="0" fill="#804998"/><path d="M1089.6 656.28h16.78v4.78h-16.8v-4.78z" stroke="#000" stroke-opacity="0" fill="#fff" fill-opacity=".2"/><path d="M1113.58 656.28h26.38v28.7h-26.38v-28.7z" stroke="#000" stroke-opacity="0" fill="#e5e5e5"/><path d="M1113.58 656.28h26.38v4.78h-26.38v-4.78z" stroke="#000" stroke-opacity="0" fill="#fff" fill-opacity=".2"/><path d="M1147.15 656.28h9.6v28.7h-9.6v-28.7z" stroke="#000" stroke-opacity="0" fill="#804998"/><path d="M1147.15 656.28h9.6v4.78h-9.6v-4.78z" stroke="#000" stroke-opacity="0" fill="#fff" fill-opacity=".2"/><path d="M1163.94 656.28h26.38v28.7h-26.38v-28.7z" stroke="#000" stroke-opacity="0" fill="#59b4d9"/><path d="M1163.94 656.28h26.38v4.78h-26.38v-4.78zM1089.6 728.02h55.15v4.78h-55.16v-4.78z" stroke="#000" stroke-opacity="0" fill="#fff" fill-opacity=".2"/><path d="M1151.95 728.02h38.37v28.7h-38.37v-28.7z" stroke="#000" stroke-opacity="0" fill="#59b4d9"/><path d="M1151.95 728.02h38.37v4.78h-38.37v-4.78z" stroke="#000" stroke-opacity="0" fill="#fff" fill-opacity=".2"/><path d="M1135.16 692.15h55.16v28.7h-55.16v-28.7z" stroke="#000" stroke-opacity="0" fill="#e5e5e5"/><path d="M1190.32 696.93h-55.16v-4.78h55.16v4.78z" stroke="#000" stroke-opacity="0" fill="#fff" fill-opacity=".2"/><path d="M1089.6 692.15h38.36v28.7h-38.37v-28.7z" stroke="#000" stroke-opacity="0" fill="#59b4d9"/><path d="M1127.96 696.93h-38.37v-4.78h38.36v4.78z" stroke="#000" stroke-opacity="0" fill="#fff" fill-opacity=".2"/><path d="M1094.42 766.28h6.44l75.26-110H1080v95.7c0 7.92 6.44 14.3 14.42 14.3z" stroke="#000" stroke-opacity="0" fill="#fff" fill-opacity=".15"/><path d="M1081.44 656.28h117.12c.96 0 1.44.48 1.44 1.44v92.97c0 .95-.48 1.43-1.44 1.43h-117.12c-.96 0-1.44-.48-1.44-1.44V657.7c0-.96.48-1.44 1.44-1.44z" stroke="#000" stroke-opacity="0" stroke-width="0" fill-opacity="0"/><use xlink:href="#o" transform="matrix(1,0,0,1,1050,775.2807699468774) translate(38.05 14.4)"/><use xlink:href="#p" transform="matrix(1,0,0,1,1050,775.2807699468774) translate(79 14.4)"/><path d="M604.3 420.98h721.65c6.63 0 12 5.37 12 12v208.36" stroke="#666" fill="none"/><path d="M603.34 421.48h-2.54v-1h3.46zm.97 0h-.5l.5-.6z" fill="#666"/><path d="M1337.95 656.1l-4.63-14.26h9.27z" stroke="#666" fill="#666"/><path d="M607.35 342.46H1128c6.63 0 12 5.38 12 12V639.9" stroke="#666" fill="none"/><path d="M607.36 342.96h-.18l-.26-.3-1.04-.08-2.03.08v-.7h2.5l.57.7h.1l-.6-.7h.94z" fill="#666"/><path d="M1140 654.66l-4.64-14.26h9.28z" stroke="#666" fill="#666"/><path d="M1480 1161.2V721.07c0-5.4 4.38-9.78 9.78-9.78h9.24c.3 0 .53-.24.53-.53 0-.3.24-.53.53-.53h2.64" stroke="#666" fill="none"/><path d="M1480.5 1161.7h-1v-.5h1z" fill="#666"/><path d="M1517.48 710.22l-14.26 4.63v-9.27z" stroke="#666" fill="#666"/><path d="M700 547.3h120.48v71.37c0 2.37-1.8 4.33-4.1 4.33H704.1c-2.3 0-4.1-1.96-4.1-4.33V547.3z" stroke="#000" stroke-opacity="0" fill="url(#q)"/><path d="M704.1 520h112.28c2.3 0 4.1 1.96 4.1 4.33v22.96H700V524.2c0-2.37 1.8-4.22 4.1-4.22z" stroke="#000" stroke-opacity="0" fill="#37c2b1"/><path d="M716.4 555.53h87.7c.96.1 1.8.93 1.8 2.07v10.5c0 1.13-.84 2.06-1.8 2.06h-87.7c-1.1 0-1.82-.93-1.82-2.06v-10.5c0-1.14.72-1.96 1.8-2.07z" stroke="#000" stroke-opacity="0" fill="#fff"/><path d="M716.4 576.55h87.7c1.08.1 1.8.92 1.8 2.06v10.62c0 1.13-.72 2.06-1.8 2.06h-87.7c-.98 0-1.82-.93-1.82-2.06v-10.2c-.12-1.13.48-2.16 1.56-2.37.12 0 .25-.1.25-.1z" stroke="#000" stroke-opacity="0" fill="#37c2b1"/><path d="M716.4 597.87h87.7c1.08 0 1.8.92 1.8 1.96v10.7c0 1.04-.72 1.96-1.8 1.96h-87.7c-.98 0-1.82-.93-1.82-1.96v-10.7c0-1.05.84-1.97 1.8-1.97z" stroke="#000" stroke-opacity="0" fill="#258277"/><path d="M1277.95 681.14h120v74.56c0 2.36-1.8 4.3-3.96 4.3h-112.1c-2.15 0-3.95-1.94-3.95-4.3v-74.56z" stroke="#000" stroke-opacity="0" fill="url(#r)"/><path d="M1282.03 657.72h111.84c2.28 0 4.08 1.94 4.08 4.3v19.12h-120v-19.12c0-2.36 1.8-4.3 4.08-4.3z" stroke="#000" stroke-opacity="0" fill="#773adc"/><path d="M1294.63 689.53h22.32c1.2 0 1.92.7 1.92 2.15v55.53c0 1.34-.72 2.06-1.92 2.06h-22.32c-1.32 0-1.92-.72-1.92-2.05V691.7c0-1.44.6-2.15 1.93-2.15z" stroke="#000" stroke-opacity="0" fill="#fff"/><path d="M1326.8 689.53h22.3c1.2 0 1.93.7 1.93 2.15v55.53c0 1.34-.72 2.06-1.92 2.06h-22.3c-1.33 0-1.93-.72-1.93-2.05V691.7c0-1.44.6-2.15 1.92-2.15z" stroke="#000" stroke-opacity="0" fill="#fff" fill-opacity=".75"/><path d="M1358.95 689.53h22.32c1.32 0 1.92.7 1.92 2.15v55.53c0 1.34-.6 2.06-1.93 2.06h-22.32c-1.2 0-1.92-.72-1.92-2.05V691.7c0-1.44.72-2.15 1.92-2.15z" stroke="#000" stroke-opacity="0" fill="#fff" fill-opacity=".5"/><path d="M1280 755.43h120v36.3h-120z" stroke="#000" stroke-opacity="0" stroke-width="2" fill="#fff" fill-opacity="0"/><use xlink:href="#s" transform="matrix(1,0,0,1,1285.0000000000002,760.4347068276434) translate(23.5 17.775)"/><path d="M880 676.08h122.05v74.56c0 2.35-1.83 4.3-4.03 4.3h-114c-2.2 0-4.02-1.95-4.02-4.3v-74.56z" stroke="#000" stroke-opacity="0" fill="url(#t)"/><path d="M884.15 652.65H997.9c2.32 0 4.15 1.95 4.15 4.3v19.13H880v-19.13c0-2.35 1.83-4.3 4.15-4.3z" stroke="#000" stroke-opacity="0" fill="#0078d4"/><path d="M976.42 691.1h-30.27c-.24.1-.6 0-.85-.2l-8.67-6.03c-.24-.2-.6-.3-.85-.3h-25.4c-.84 0-1.58.8-1.58 1.73v55.64c0 .92.74 1.64 1.6 1.64h66.02c.85 0 1.6-.72 1.6-1.74v-49c0-.9-.75-1.73-1.6-1.73z" stroke="#000" stroke-opacity="0" fill="#5ea0ef"/><path d="M913.93 688.04h15.38c.5 0 .74.2.74.72v2.04c0 .52-.24.72-.73.72h-15.37c-.37 0-.6-.2-.6-.72v-2.04c0-.5.23-.72.6-.72z" stroke="#000" stroke-opacity="0" fill="#fff"/><path d="M913.8 688.04h2.33c.36 0 .48.2.48.5v2.47c0 .32-.1.52-.47.52h-2.32c-.36 0-.48-.2-.48-.5v-2.47c0-.3.12-.5.5-.5z" stroke="#000" stroke-opacity="0" fill="#0078d4"/><path d="M976.42 691.1h-33.2c-.5 0-.85.1-1.22.52l-5.25 5.53c-.36.3-.73.5-1.22.5H910.4c-.86 0-1.6.72-1.6 1.64v42.54c0 .92.74 1.64 1.6 1.64h66.02c.85 0 1.6-.72 1.6-1.64v-49.1c0-.9-.75-1.63-1.6-1.63z" stroke="#000" stroke-opacity="0" fill="#fff" fill-opacity=".9"/><path d="M1519.1 685.54h120v72.77c0 2.42-1.8 4.42-3.96 4.42h-112.08c-2.16 0-3.96-2-3.96-4.4v-72.78z" stroke="#000" stroke-opacity="0" fill="url(#u)"/><path d="M1523.18 657.72h111.84c2.28 0 4.08 2 4.08 4.4v23.42h-120v-23.4c0-2.43 1.8-4.42 3.96-4.42h.12z" stroke="#000" stroke-opacity="0" fill="#0078d4"/><path d="M1533.86 695.83h21.72c1.32 0 2.04.63 2.04 2.1v9.87c0 1.47-.72 2.2-2.04 2.2h-21.72c-1.32 0-2.04-.73-2.04-2.2v-9.87c0-1.47.72-2.1 2.04-2.1zM1568.42 695.62h21.72c1.32 0 2.04.74 2.04 2.1v9.87c0 1.46-.72 2.2-2.04 2.2h-21.72c-1.32 0-2.04-.74-2.04-2.2v-9.88c0-1.36.72-2.1 2.04-2.1zM1602.98 695.62h21.72c1.32 0 2.04.74 2.04 2.1v9.87c0 1.46-.72 2.2-2.04 2.2h-21.72c-1.32 0-2.04-.74-2.04-2.2v-9.88c0-1.36.72-2.1 2.04-2.1zM1534.22 716.1h21.72c1.32 0 2.04.73 2.04 2.2v9.87c0 1.47-.72 2.1-2.04 2.1h-21.72c-1.32 0-2.04-.63-2.04-2.1v-9.87c0-1.47.72-2.2 2.04-2.2z" stroke="#000" stroke-opacity="0" fill="#fff" fill-opacity=".9"/><path d="M1568.78 715.9h21.72c1.32 0 2.04.72 2.04 2.2v9.86c0 1.47-.72 2.2-2.04 2.2h-21.72c-1.32 0-2.04-.73-2.04-2.2v-9.87c0-1.48.72-2.2 2.04-2.2zM1603.34 715.9h21.72c1.32 0 2.04.72 2.04 2.2v9.86c0 1.47-.72 2.2-2.04 2.2h-21.72c-1.32 0-2.04-.73-2.04-2.2v-9.87c0-1.48.72-2.2 2.04-2.2zM1534.22 736.68h21.72c1.32 0 2.04.73 2.04 2.1v9.87c0 1.47-.72 2.2-2.04 2.2h-21.72c-1.32 0-2.04-.73-2.04-2.2v-9.87c0-1.37.72-2.1 2.04-2.1zM1568.78 736.47h21.72c1.32 0 2.04.73 2.04 2.1v9.87c0 1.47-.72 2.2-2.04 2.2h-21.72c-1.32 0-2.04-.73-2.04-2.2v-9.87c0-1.37.72-2.1 2.04-2.1zM1603.34 736.47h21.72c1.32 0 2.04.73 2.04 2.1v9.87c0 1.47-.72 2.2-2.04 2.2h-21.72c-1.32 0-2.04-.73-2.04-2.2v-9.87c0-1.37.72-2.1 2.04-2.1z" stroke="#000" stroke-opacity="0" fill="#ffd400"/><path d="M1479.25 768h159.85v36.28h-159.85z" stroke="#000" stroke-opacity="0" stroke-width="2" fill="#fff" fill-opacity="0"/><use xlink:href="#v" transform="matrix(1,0,0,1,1484.2513765452572,773.0007845818122) translate(49.05 17.775)"/><path d="M880 768h122.05v36.28H880z" stroke="#000" stroke-opacity="0" stroke-width="2" fill="#fff" fill-opacity="0"/><use xlink:href="#w" transform="matrix(1,0,0,1,885,773.0007845818122) translate(12.599999999999994 17.775)"/><use xlink:href="#x" transform="matrix(1,0,0,1,885,773.0007845818122) translate(46.449999999999996 17.775)"/><path d="M700.94 640h120.48v36.28H700.94z" stroke="#000" stroke-opacity="0" stroke-width="2" fill="#fff" fill-opacity="0"/><g><use xlink:href="#y" transform="matrix(1,0,0,1,705.9440324393803,645) translate(24.025 14.4)"/><use xlink:href="#z" transform="matrix(1,0,0,1,705.9440324393803,645) translate(23 36)"/></g><path d="M1162.9 1162.75v-27.5c0-6.63 5.37-12 12-12H1428c6.63 0 12-5.37 12-12v-390.4c0-6.62-5.37-12-12-12h-13.66" stroke="#666" fill="none"/><path d="M1163.4 1163.25h-1v-.5h1z" fill="#666"/><path d="M1399.57 708.86l14.27-4.64v9.27z" stroke="#666" fill="#666"/><path d="M1112.3 1162.47V1132c0-6.63-5.38-12-12-12H802c-6.63 0-12-5.37-12-12V715.8c0-6.63 5.37-12 12-12h61.62" stroke="#666" fill="none"/><path d="M1112.8 1162.97h-1v-.5h1z" fill="#666"/><path d="M878.38 703.8l-14.26 4.63v-9.27z" stroke="#666" fill="#666"/><path d="M1195.65 1217.2h208.44" stroke="#666" fill="none"/><path d="M1195.66 1217.7h-.58l.14-1h.44z" fill="#666"/><path d="M1418.85 1217.2l-14.26 4.65v-9.27z" stroke="#666" fill="#666"/><defs><path d="M205 0l-28-72H64L36 0H1l101-248h38L239 0h-34zm-38-99l-47-123c-12 45-31 82-46 123h93" id="A"/><path d="M9 0v-24l116-142H16v-24h144v24L44-24h123V0H9" id="B"/><path d="M84 4C-5 8 30-112 23-190h32v120c0 31 7 50 39 49 72-2 45-101 50-169h31l1 190h-30c-1-10 1-25-2-33-11 22-28 36-60 37" id="C"/><path d="M114-163C36-179 61-72 57 0H25l-1-190h30c1 12-1 29 2 39 6-27 23-49 58-41v29" id="D"/><path d="M100-194c63 0 86 42 84 106H49c0 40 14 67 53 68 26 1 43-12 49-29l28 8c-11 28-37 45-77 45C44 4 14-33 15-96c1-61 26-98 85-98zm52 81c6-60-76-77-97-28-3 7-6 17-6 28h103" id="E"/><g id="a"><use transform="matrix(0.05,0,0,0.05,0,0)" xlink:href="#A"/><use transform="matrix(0.05,0,0,0.05,12,0)" xlink:href="#B"/><use transform="matrix(0.05,0,0,0.05,21,0)" xlink:href="#C"/><use transform="matrix(0.05,0,0,0.05,31,0)" xlink:href="#D"/><use transform="matrix(0.05,0,0,0.05,36.95,0)" xlink:href="#E"/></g><path d="M212-179c-10-28-35-45-73-45-59 0-87 40-87 99 0 60 29 101 89 101 43 0 62-24 78-52l27 14C228-24 195 4 139 4 59 4 22-46 18-125c-6-104 99-153 187-111 19 9 31 26 39 46" id="F"/><path d="M100-194c62-1 85 37 85 99 1 63-27 99-86 99S16-35 15-95c0-66 28-99 85-99zM99-20c44 1 53-31 53-75 0-43-8-75-51-75s-53 32-53 75 10 74 51 75" id="G"/><path d="M135-143c-3-34-86-38-87 0 15 53 115 12 119 90S17 21 10-45l28-5c4 36 97 45 98 0-10-56-113-15-118-90-4-57 82-63 122-42 12 7 21 19 24 35" id="H"/><path d="M210-169c-67 3-38 105-44 169h-31v-121c0-29-5-50-35-48C34-165 62-65 56 0H25l-1-190h30c1 10-1 24 2 32 10-44 99-50 107 0 11-21 27-35 58-36 85-2 47 119 55 194h-31v-121c0-29-5-49-35-48" id="I"/><g id="b"><use transform="matrix(0.05,0,0,0.05,0,0)" xlink:href="#F"/><use transform="matrix(0.05,0,0,0.05,12.950000000000001,0)" xlink:href="#G"/><use transform="matrix(0.05,0,0,0.05,22.950000000000003,0)" xlink:href="#H"/><use transform="matrix(0.05,0,0,0.05,31.950000000000003,0)" xlink:href="#I"/><use transform="matrix(0.05,0,0,0.05,46.900000000000006,0)" xlink:href="#G"/><use transform="matrix(0.05,0,0,0.05,56.900000000000006,0)" xlink:href="#H"/></g><path d="M30-248c118-7 216 8 213 122C240-48 200 0 122 0H30v-248zM63-27c89 8 146-16 146-99s-60-101-146-95v194" id="J"/><path d="M160-131c35 5 61 23 61 61C221 17 115-2 30 0v-248c76 3 177-17 177 60 0 33-19 50-47 57zm-97-11c50-1 110 9 110-42 0-47-63-36-110-37v79zm0 115c55-2 124 14 124-45 0-56-70-42-124-44v89" id="K"/><g id="c"><use transform="matrix(0.05,0,0,0.05,0,0)" xlink:href="#J"/><use transform="matrix(0.05,0,0,0.05,12.950000000000001,0)" xlink:href="#K"/></g><path d="M185-189c-5-48-123-54-124 2 14 75 158 14 163 119 3 78-121 87-175 55-17-10-28-26-33-46l33-7c5 56 141 63 141-1 0-78-155-14-162-118-5-82 145-84 179-34 5 7 8 16 11 25" id="L"/><path d="M30-248c87 1 191-15 191 75 0 78-77 80-158 76V0H30v-248zm33 125c57 0 124 11 124-50 0-59-68-47-124-48v98" id="M"/><path d="M33 0v-38h34V0H33" id="N"/><path d="M190 0L58-211 59 0H30v-248h39L202-35l-2-213h31V0h-41" id="O"/><path d="M30 0v-248h187v28H63v79h144v27H63v87h162V0H30" id="P"/><path d="M127-220V0H93v-220H8v-28h204v28h-85" id="Q"/><g id="d"><use transform="matrix(0.05,0,0,0.05,0,0)" xlink:href="#A"/><use transform="matrix(0.05,0,0,0.05,12,0)" xlink:href="#L"/><use transform="matrix(0.05,0,0,0.05,24,0)" xlink:href="#M"/><use transform="matrix(0.05,0,0,0.05,33.7,0)" xlink:href="#N"/><use transform="matrix(0.05,0,0,0.05,38.7,0)" xlink:href="#O"/><use transform="matrix(0.05,0,0,0.05,51.650000000000006,0)" xlink:href="#P"/><use transform="matrix(0.05,0,0,0.05,63.650000000000006,0)" xlink:href="#Q"/></g><g id="e"><use transform="matrix(0.05,0,0,0.05,0,0)" xlink:href="#F"/><use transform="matrix(0.05,0,0,0.05,12.950000000000001,0)" xlink:href="#G"/><use transform="matrix(0.05,0,0,0.05,22.950000000000003,0)" xlink:href="#D"/><use transform="matrix(0.05,0,0,0.05,28.900000000000002,0)" xlink:href="#E"/></g><path d="M266 0h-40l-56-210L115 0H75L2-248h35L96-30l15-64 43-154h32l59 218 59-218h35" id="R"/><path d="M115-194c53 0 69 39 70 98 0 66-23 100-70 100C84 3 66-7 56-30L54 0H23l1-261h32v101c10-23 28-34 59-34zm-8 174c40 0 45-34 45-75 0-40-5-75-45-74-42 0-51 32-51 76 0 43 10 73 51 73" id="S"/><g id="f"><use transform="matrix(0.05,0,0,0.05,0,0)" xlink:href="#R"/><use transform="matrix(0.05,0,0,0.05,16.599999999999998,0)" xlink:href="#E"/><use transform="matrix(0.05,0,0,0.05,26.599999999999994,0)" xlink:href="#S"/></g><path d="M33 0v-248h34V0H33" id="T"/><g id="g"><use transform="matrix(0.05,0,0,0.05,0,0)" xlink:href="#A"/><use transform="matrix(0.05,0,0,0.05,12,0)" xlink:href="#M"/><use transform="matrix(0.05,0,0,0.05,24,0)" xlink:href="#T"/></g><g id="h"><use transform="matrix(0.05,0,0,0.05,0,0)" xlink:href="#N"/><use transform="matrix(0.05,0,0,0.05,5,0)" xlink:href="#O"/><use transform="matrix(0.05,0,0,0.05,17.950000000000003,0)" xlink:href="#P"/><use transform="matrix(0.05,0,0,0.05,29.950000000000003,0)" xlink:href="#Q"/></g><path d="M63-220v92h138v28H63V0H30v-248h175v28H63" id="U"/><path d="M117-194c89-4 53 116 60 194h-32v-121c0-31-8-49-39-48C34-167 62-67 57 0H25l-1-190h30c1 10-1 24 2 32 11-22 29-35 61-36" id="V"/><path d="M96-169c-40 0-48 33-48 73s9 75 48 75c24 0 41-14 43-38l32 2c-6 37-31 61-74 61-59 0-76-41-82-99-10-93 101-131 147-64 4 7 5 14 7 22l-32 3c-4-21-16-35-41-35" id="W"/><path d="M59-47c-2 24 18 29 38 22v24C64 9 27 4 27-40v-127H5v-23h24l9-43h21v43h35v23H59v120" id="X"/><path d="M24-231v-30h32v30H24zM24 0v-190h32V0H24" id="Y"/><g id="j"><use transform="matrix(0.05,0,0,0.05,0,0)" xlink:href="#U"/><use transform="matrix(0.05,0,0,0.05,10.950000000000001,0)" xlink:href="#C"/><use transform="matrix(0.05,0,0,0.05,20.950000000000003,0)" xlink:href="#V"/><use transform="matrix(0.05,0,0,0.05,30.950000000000003,0)" xlink:href="#W"/><use transform="matrix(0.05,0,0,0.05,39.95,0)" xlink:href="#X"/><use transform="matrix(0.05,0,0,0.05,44.95,0)" xlink:href="#Y"/><use transform="matrix(0.05,0,0,0.05,48.900000000000006,0)" xlink:href="#G"/><use transform="matrix(0.05,0,0,0.05,58.900000000000006,0)" xlink:href="#V"/></g><path d="M115-194c55 1 70 41 70 98S169 2 115 4C84 4 66-9 55-30l1 105H24l-1-265h31l2 30c10-21 28-34 59-34zm-8 174c40 0 45-34 45-75s-6-73-45-74c-42 0-51 32-51 76 0 43 10 73 51 73" id="Z"/><g id="k"><use transform="matrix(0.05,0,0,0.05,0,0)" xlink:href="#A"/><use transform="matrix(0.05,0,0,0.05,12,0)" xlink:href="#Z"/><use transform="matrix(0.05,0,0,0.05,22,0)" xlink:href="#Z"/><use transform="matrix(0.05,0,0,0.05,32,0)" xlink:href="#H"/></g><path d="M30 0v-248h33v221h125V0H30" id="aa"/><path d="M177-190C167-65 218 103 67 71c-23-6-38-20-44-43l32-5c15 47 100 32 89-28v-30C133-14 115 1 83 1 29 1 15-40 15-95c0-56 16-97 71-98 29-1 48 16 59 35 1-10 0-23 2-32h30zM94-22c36 0 50-32 50-73 0-42-14-75-50-75-39 0-46 34-46 75s6 73 46 73" id="ab"/><g id="l"><use transform="matrix(0.05,0,0,0.05,0,0)" xlink:href="#aa"/><use transform="matrix(0.05,0,0,0.05,10,0)" xlink:href="#G"/><use transform="matrix(0.05,0,0,0.05,20,0)" xlink:href="#ab"/><use transform="matrix(0.05,0,0,0.05,30,0)" xlink:href="#Y"/><use transform="matrix(0.05,0,0,0.05,33.95,0)" xlink:href="#W"/></g><path d="M233-177c-1 41-23 64-60 70L243 0h-38l-65-103H63V0H30v-248c88 3 205-21 203 71zM63-129c60-2 137 13 137-47 0-61-80-42-137-45v92" id="ac"/><g id="m"><use transform="matrix(0.05,0,0,0.05,0,0)" xlink:href="#ac"/><use transform="matrix(0.05,0,0,0.05,12.950000000000001,0)" xlink:href="#E"/><use transform="matrix(0.05,0,0,0.05,22.950000000000003,0)" xlink:href="#H"/><use transform="matrix(0.05,0,0,0.05,31.950000000000003,0)" xlink:href="#G"/><use transform="matrix(0.05,0,0,0.05,41.95,0)" xlink:href="#C"/><use transform="matrix(0.05,0,0,0.05,51.95,0)" xlink:href="#D"/><use transform="matrix(0.05,0,0,0.05,57.900000000000006,0)" xlink:href="#W"/><use transform="matrix(0.05,0,0,0.05,66.9,0)" xlink:href="#E"/></g><path d="M143 4C61 4 22-44 18-125c-5-107 100-154 193-111 17 8 29 25 37 43l-32 9c-13-25-37-40-76-40-61 0-88 39-88 99 0 61 29 100 91 101 35 0 62-11 79-27v-45h-74v-28h105v86C228-13 192 4 143 4" id="ad"/><g id="n"><use transform="matrix(0.05,0,0,0.05,0,0)" xlink:href="#ad"/><use transform="matrix(0.05,0,0,0.05,14,0)" xlink:href="#D"/><use transform="matrix(0.05,0,0,0.05,19.95,0)" xlink:href="#G"/><use transform="matrix(0.05,0,0,0.05,29.950000000000003,0)" xlink:href="#C"/><use transform="matrix(0.05,0,0,0.05,39.95,0)" xlink:href="#Z"/></g><path d="M24 0v-261h32V0H24" id="ae"/><g id="o"><use transform="matrix(0.05,0,0,0.05,0,0)" xlink:href="#K"/><use transform="matrix(0.05,0,0,0.05,12,0)" xlink:href="#ae"/><use transform="matrix(0.05,0,0,0.05,15.949999999999998,0)" xlink:href="#G"/><use transform="matrix(0.05,0,0,0.05,25.950000000000003,0)" xlink:href="#S"/></g><path d="M141-36C126-15 110 5 73 4 37 3 15-17 15-53c-1-64 63-63 125-63 3-35-9-54-41-54-24 1-41 7-42 31l-33-3c5-37 33-52 76-52 45 0 72 20 72 64v82c-1 20 7 32 28 27v20c-31 9-61-2-59-35zM48-53c0 20 12 33 32 33 41-3 63-29 60-74-43 2-92-5-92 41" id="af"/><g id="p"><use transform="matrix(0.05,0,0,0.05,0,0)" xlink:href="#L"/><use transform="matrix(0.05,0,0,0.05,12,0)" xlink:href="#X"/><use transform="matrix(0.05,0,0,0.05,17,0)" xlink:href="#G"/><use transform="matrix(0.05,0,0,0.05,27,0)" xlink:href="#D"/><use transform="matrix(0.05,0,0,0.05,32.95,0)" xlink:href="#af"/><use transform="matrix(0.05,0,0,0.05,42.95,0)" xlink:href="#ab"/><use transform="matrix(0.05,0,0,0.05,52.95,0)" xlink:href="#E"/></g><linearGradient gradientUnits="userSpaceOnUse" id="q" x1="760.24" y1="622.92" x2="760.24" y2="547.29"><stop offset="0%" stop-color="#b3b3b3"/><stop offset="26%" stop-color="#c1c1c1"/><stop offset="100%" stop-color="#e6e6e6"/></linearGradient><linearGradient gradientUnits="userSpaceOnUse" id="r" x1="1337.95" y1="760" x2="1337.95" y2="681.14"><stop offset="0%" stop-color="#a67af4"/><stop offset="77.5%" stop-color="#b796f9"/></linearGradient><path d="M140-251c81 0 123 46 123 126C263-53 228-8 163 1c7 30 30 48 69 40v23c-55 16-95-15-103-61C56-3 17-48 17-125c0-80 42-126 123-126zm0 227c63 0 89-41 89-101s-29-99-89-99c-61 0-89 39-89 99S79-25 140-24" id="ag"/><g id="s"><use transform="matrix(0.05,0,0,0.05,0,0)" xlink:href="#ag"/><use transform="matrix(0.05,0,0,0.05,14,0)" xlink:href="#C"/><use transform="matrix(0.05,0,0,0.05,24,0)" xlink:href="#E"/><use transform="matrix(0.05,0,0,0.05,34,0)" xlink:href="#C"/><use transform="matrix(0.05,0,0,0.05,44,0)" xlink:href="#E"/><use transform="matrix(0.05,0,0,0.05,54,0)" xlink:href="#H"/></g><linearGradient gradientUnits="userSpaceOnUse" id="t" x1="941.02" y1="754.93" x2="941.02" y2="676.08"><stop offset="0%" stop-color="#32bedd"/><stop offset="77.5%" stop-color="#32d4f5"/></linearGradient><linearGradient gradientUnits="userSpaceOnUse" id="u" x1="1579.1" y1="762.72" x2="1579.1" y2="685.54"><stop offset="0%" stop-color="#0078d4"/><stop offset="50.2%" stop-color="#4093e6"/><stop offset="77.5%" stop-color="#5ea0ef"/></linearGradient><g id="v"><use transform="matrix(0.05,0,0,0.05,0,0)" xlink:href="#Q"/><use transform="matrix(0.05,0,0,0.05,8.950000000000001,0)" xlink:href="#af"/><use transform="matrix(0.05,0,0,0.05,18.950000000000003,0)" xlink:href="#S"/><use transform="matrix(0.05,0,0,0.05,28.950000000000003,0)" xlink:href="#ae"/><use transform="matrix(0.05,0,0,0.05,32.900000000000006,0)" xlink:href="#E"/><use transform="matrix(0.05,0,0,0.05,42.900000000000006,0)" xlink:href="#H"/></g><g id="w"><use transform="matrix(0.05,0,0,0.05,0,0)" xlink:href="#U"/><use transform="matrix(0.05,0,0,0.05,10.950000000000001,0)" xlink:href="#Y"/><use transform="matrix(0.05,0,0,0.05,14.9,0)" xlink:href="#ae"/><use transform="matrix(0.05,0,0,0.05,18.85,0)" xlink:href="#E"/></g><path d="M106-169C34-169 62-67 57 0H25v-261h32l-1 103c12-21 28-36 61-36 89 0 53 116 60 194h-32v-121c2-32-8-49-39-48" id="ah"/><g id="x"><use transform="matrix(0.05,0,0,0.05,0,0)" xlink:href="#H"/><use transform="matrix(0.05,0,0,0.05,9,0)" xlink:href="#ah"/><use transform="matrix(0.05,0,0,0.05,19,0)" xlink:href="#af"/><use transform="matrix(0.05,0,0,0.05,29,0)" xlink:href="#D"/><use transform="matrix(0.05,0,0,0.05,34.95,0)" xlink:href="#E"/><use transform="matrix(0.05,0,0,0.05,44.95,0)" xlink:href="#H"/></g><g id="y"><use transform="matrix(0.05,0,0,0.05,0,0)" xlink:href="#L"/><use transform="matrix(0.05,0,0,0.05,12,0)" xlink:href="#X"/><use transform="matrix(0.05,0,0,0.05,17,0)" xlink:href="#G"/><use transform="matrix(0.05,0,0,0.05,27,0)" xlink:href="#D"/><use transform="matrix(0.05,0,0,0.05,32.95,0)" xlink:href="#af"/><use transform="matrix(0.05,0,0,0.05,42.95,0)" xlink:href="#ab"/><use transform="matrix(0.05,0,0,0.05,52.95,0)" xlink:href="#E"/></g><g id="z"><use transform="matrix(0.05,0,0,0.05,0,0)" xlink:href="#A"/><use transform="matrix(0.05,0,0,0.05,12,0)" xlink:href="#W"/><use transform="matrix(0.05,0,0,0.05,21,0)" xlink:href="#W"/><use transform="matrix(0.05,0,0,0.05,30,0)" xlink:href="#G"/><use transform="matrix(0.05,0,0,0.05,40,0)" xlink:href="#C"/><use transform="matrix(0.05,0,0,0.05,50,0)" xlink:href="#V"/><use transform="matrix(0.05,0,0,0.05,60,0)" xlink:href="#X"/></g></defs></g></svg>